<mxfile host="app.diagrams.net" modified="2020-03-21T20:38:15.573Z" agent="Mozilla/5.0 (Windows NT 10.0; Win64; x64) AppleWebKit/537.36 (KHTML, like Gecko) Chrome/80.0.3987.149 Safari/537.36" etag="Nfl6VUh6yz7XsYi58eI7" version="12.8.8" type="github">
  <diagram id="s-fJWoQtj2VFVK5msN_l" name="Page-1">
    <mxGraphModel dx="4878" dy="1960" grid="1" gridSize="10" guides="1" tooltips="1" connect="1" arrows="1" fold="1" page="1" pageScale="1" pageWidth="827" pageHeight="1169" math="0" shadow="0">
      <root>
        <mxCell id="0" />
        <mxCell id="1" parent="0" />
        <mxCell id="5YLZRb2mabN50mvJNGqJ-272" style="edgeStyle=orthogonalEdgeStyle;curved=1;comic=0;orthogonalLoop=1;jettySize=auto;html=1;exitX=0.5;exitY=1;exitDx=0;exitDy=0;shadow=0;startArrow=classic;startFill=1;endArrow=none;endFill=0;dashed=1;" edge="1" parent="1" source="5YLZRb2mabN50mvJNGqJ-276" target="5YLZRb2mabN50mvJNGqJ-348">
          <mxGeometry relative="1" as="geometry" />
        </mxCell>
        <mxCell id="5YLZRb2mabN50mvJNGqJ-273" value="rdfs:subClassOf" style="text;html=1;align=center;verticalAlign=middle;resizable=0;points=[];labelBackgroundColor=#ffffff;fontColor=#000000;" vertex="1" connectable="0" parent="5YLZRb2mabN50mvJNGqJ-272">
          <mxGeometry x="0.3004" y="-3" relative="1" as="geometry">
            <mxPoint x="5.43" y="32" as="offset" />
          </mxGeometry>
        </mxCell>
        <mxCell id="5YLZRb2mabN50mvJNGqJ-274" style="edgeStyle=orthogonalEdgeStyle;curved=1;comic=0;orthogonalLoop=1;jettySize=auto;html=1;shadow=0;startArrow=classic;startFill=1;endArrow=none;endFill=0;exitX=0.5;exitY=1;exitDx=0;exitDy=0;dashed=1;" edge="1" parent="1" source="5YLZRb2mabN50mvJNGqJ-276" target="5YLZRb2mabN50mvJNGqJ-367">
          <mxGeometry relative="1" as="geometry" />
        </mxCell>
        <mxCell id="5YLZRb2mabN50mvJNGqJ-275" value="rdfs:subClassOf" style="text;html=1;align=center;verticalAlign=middle;resizable=0;points=[];labelBackgroundColor=#ffffff;fontColor=#000000;" vertex="1" connectable="0" parent="5YLZRb2mabN50mvJNGqJ-274">
          <mxGeometry x="0.1369" y="1" relative="1" as="geometry">
            <mxPoint x="11" y="30" as="offset" />
          </mxGeometry>
        </mxCell>
        <mxCell id="5YLZRb2mabN50mvJNGqJ-276" value="sbeo:Device" style="ellipse;whiteSpace=wrap;html=1;aspect=fixed;fillColor=#dae8fc;strokeColor=#6c8ebf;shadow=0;" vertex="1" parent="1">
          <mxGeometry x="130" y="284" width="80" height="80" as="geometry" />
        </mxCell>
        <mxCell id="5YLZRb2mabN50mvJNGqJ-277" value="seas:Zone&lt;br&gt;Connection" style="ellipse;whiteSpace=wrap;html=1;aspect=fixed;fillColor=#1ba1e2;strokeColor=#006EAF;fontColor=#ffffff;shadow=0;" vertex="1" parent="1">
          <mxGeometry x="640" y="233.5" width="80" height="80" as="geometry" />
        </mxCell>
        <mxCell id="5YLZRb2mabN50mvJNGqJ-278" style="edgeStyle=orthogonalEdgeStyle;curved=1;comic=0;orthogonalLoop=1;jettySize=auto;html=1;entryX=1;entryY=0.5;entryDx=0;entryDy=0;shadow=0;startArrow=classic;startFill=1;endArrow=none;endFill=0;dashed=1;" edge="1" parent="1" source="5YLZRb2mabN50mvJNGqJ-293" target="5YLZRb2mabN50mvJNGqJ-424">
          <mxGeometry relative="1" as="geometry">
            <Array as="points">
              <mxPoint x="-630" y="525" />
              <mxPoint x="-630" y="457" />
            </Array>
          </mxGeometry>
        </mxCell>
        <mxCell id="5YLZRb2mabN50mvJNGqJ-279" style="edgeStyle=orthogonalEdgeStyle;curved=1;comic=0;orthogonalLoop=1;jettySize=auto;html=1;entryX=1;entryY=0.5;entryDx=0;entryDy=0;shadow=0;startArrow=classic;startFill=1;endArrow=none;endFill=0;dashed=1;exitX=0;exitY=0.5;exitDx=0;exitDy=0;" edge="1" parent="1" source="5YLZRb2mabN50mvJNGqJ-293" target="5YLZRb2mabN50mvJNGqJ-423">
          <mxGeometry relative="1" as="geometry">
            <Array as="points">
              <mxPoint x="-761" y="525" />
            </Array>
          </mxGeometry>
        </mxCell>
        <mxCell id="5YLZRb2mabN50mvJNGqJ-280" value="rdfs:subClassOf" style="text;html=1;align=center;verticalAlign=middle;resizable=0;points=[];labelBackgroundColor=#ffffff;fontColor=#000000;" vertex="1" connectable="0" parent="5YLZRb2mabN50mvJNGqJ-279">
          <mxGeometry x="0.7188" y="19" relative="1" as="geometry">
            <mxPoint x="28.46" y="-14.03" as="offset" />
          </mxGeometry>
        </mxCell>
        <mxCell id="5YLZRb2mabN50mvJNGqJ-281" style="edgeStyle=orthogonalEdgeStyle;curved=1;comic=0;orthogonalLoop=1;jettySize=auto;html=1;entryX=1;entryY=0.5;entryDx=0;entryDy=0;shadow=0;startArrow=classic;startFill=1;endArrow=none;endFill=0;dashed=1;" edge="1" parent="1" source="5YLZRb2mabN50mvJNGqJ-293" target="5YLZRb2mabN50mvJNGqJ-422">
          <mxGeometry relative="1" as="geometry">
            <Array as="points">
              <mxPoint x="-670" y="525" />
              <mxPoint x="-670" y="633" />
            </Array>
          </mxGeometry>
        </mxCell>
        <mxCell id="5YLZRb2mabN50mvJNGqJ-282" value="rdfs:subClassOf" style="text;html=1;align=center;verticalAlign=middle;resizable=0;points=[];labelBackgroundColor=#ffffff;fontColor=#000000;" vertex="1" connectable="0" parent="5YLZRb2mabN50mvJNGqJ-281">
          <mxGeometry x="0.5095" y="-8" relative="1" as="geometry">
            <mxPoint x="-31.97" y="-1.97" as="offset" />
          </mxGeometry>
        </mxCell>
        <mxCell id="5YLZRb2mabN50mvJNGqJ-283" style="edgeStyle=orthogonalEdgeStyle;curved=1;comic=0;orthogonalLoop=1;jettySize=auto;html=1;entryX=1;entryY=0.5;entryDx=0;entryDy=0;shadow=0;startArrow=classic;startFill=1;endArrow=none;endFill=0;dashed=1;" edge="1" parent="1" source="5YLZRb2mabN50mvJNGqJ-293" target="5YLZRb2mabN50mvJNGqJ-401">
          <mxGeometry relative="1" as="geometry">
            <Array as="points">
              <mxPoint x="-661" y="525" />
              <mxPoint x="-661" y="722" />
            </Array>
          </mxGeometry>
        </mxCell>
        <mxCell id="5YLZRb2mabN50mvJNGqJ-284" value="rdfs:subClassOf" style="text;html=1;align=center;verticalAlign=middle;resizable=0;points=[];labelBackgroundColor=#ffffff;fontColor=#000000;" vertex="1" connectable="0" parent="5YLZRb2mabN50mvJNGqJ-283">
          <mxGeometry x="0.6322" y="-15" relative="1" as="geometry">
            <mxPoint x="-34" y="-14.17" as="offset" />
          </mxGeometry>
        </mxCell>
        <mxCell id="5YLZRb2mabN50mvJNGqJ-285" style="edgeStyle=orthogonalEdgeStyle;curved=1;comic=0;orthogonalLoop=1;jettySize=auto;html=1;shadow=0;startArrow=classic;startFill=1;endArrow=none;endFill=0;dashed=1;entryX=0.5;entryY=0;entryDx=0;entryDy=0;exitX=0;exitY=0.5;exitDx=0;exitDy=0;" edge="1" parent="1" source="5YLZRb2mabN50mvJNGqJ-293" target="5YLZRb2mabN50mvJNGqJ-430">
          <mxGeometry relative="1" as="geometry">
            <mxPoint x="-941" y="346" as="targetPoint" />
            <Array as="points">
              <mxPoint x="-621" y="525" />
              <mxPoint x="-621" y="390" />
              <mxPoint x="-901" y="390" />
            </Array>
          </mxGeometry>
        </mxCell>
        <mxCell id="5YLZRb2mabN50mvJNGqJ-286" value="rdfs:subClassOf" style="text;html=1;align=center;verticalAlign=middle;resizable=0;points=[];labelBackgroundColor=#ffffff;fontColor=#000000;" vertex="1" connectable="0" parent="5YLZRb2mabN50mvJNGqJ-285">
          <mxGeometry x="0.5785" y="1" relative="1" as="geometry">
            <mxPoint x="6.670000000000002" y="-2" as="offset" />
          </mxGeometry>
        </mxCell>
        <mxCell id="5YLZRb2mabN50mvJNGqJ-287" style="edgeStyle=orthogonalEdgeStyle;curved=1;comic=0;orthogonalLoop=1;jettySize=auto;html=1;entryX=1;entryY=0.5;entryDx=0;entryDy=0;shadow=0;startArrow=classic;startFill=1;endArrow=none;endFill=0;dashed=1;" edge="1" parent="1" source="5YLZRb2mabN50mvJNGqJ-293" target="5YLZRb2mabN50mvJNGqJ-425">
          <mxGeometry relative="1" as="geometry">
            <Array as="points">
              <mxPoint x="-661" y="525" />
              <mxPoint x="-661" y="813" />
            </Array>
          </mxGeometry>
        </mxCell>
        <mxCell id="5YLZRb2mabN50mvJNGqJ-288" value="rdfs:subClassOf" style="text;html=1;align=center;verticalAlign=middle;resizable=0;points=[];labelBackgroundColor=#ffffff;fontColor=#000000;" vertex="1" connectable="0" parent="5YLZRb2mabN50mvJNGqJ-287">
          <mxGeometry x="0.7481" y="-12" relative="1" as="geometry">
            <mxPoint x="-32.33" y="-7" as="offset" />
          </mxGeometry>
        </mxCell>
        <mxCell id="5YLZRb2mabN50mvJNGqJ-289" style="edgeStyle=orthogonalEdgeStyle;curved=1;comic=0;orthogonalLoop=1;jettySize=auto;html=1;entryX=1;entryY=0.5;entryDx=0;entryDy=0;shadow=0;startArrow=classic;startFill=1;endArrow=none;endFill=0;dashed=1;exitX=0;exitY=0.5;exitDx=0;exitDy=0;" edge="1" parent="1" source="5YLZRb2mabN50mvJNGqJ-293" target="5YLZRb2mabN50mvJNGqJ-431">
          <mxGeometry relative="1" as="geometry">
            <Array as="points">
              <mxPoint x="-661" y="525" />
              <mxPoint x="-661" y="900" />
            </Array>
          </mxGeometry>
        </mxCell>
        <mxCell id="5YLZRb2mabN50mvJNGqJ-290" value="rdfs:subClassOf" style="text;html=1;align=center;verticalAlign=middle;resizable=0;points=[];labelBackgroundColor=#ffffff;fontColor=#000000;" vertex="1" connectable="0" parent="5YLZRb2mabN50mvJNGqJ-289">
          <mxGeometry x="0.3801" y="-12" relative="1" as="geometry">
            <mxPoint x="-36" y="97" as="offset" />
          </mxGeometry>
        </mxCell>
        <mxCell id="5YLZRb2mabN50mvJNGqJ-291" style="edgeStyle=orthogonalEdgeStyle;curved=1;comic=0;orthogonalLoop=1;jettySize=auto;html=1;exitX=0;exitY=0.5;exitDx=0;exitDy=0;shadow=0;startArrow=none;startFill=0;endArrow=classic;endFill=1;fontColor=#000000;entryX=0.5;entryY=1;entryDx=0;entryDy=0;" edge="1" parent="1" source="5YLZRb2mabN50mvJNGqJ-293" target="5YLZRb2mabN50mvJNGqJ-315">
          <mxGeometry relative="1" as="geometry">
            <Array as="points">
              <mxPoint x="-491" y="525" />
            </Array>
          </mxGeometry>
        </mxCell>
        <mxCell id="5YLZRb2mabN50mvJNGqJ-292" value="&lt;span style=&quot;background-color: rgb(102 , 255 , 255)&quot;&gt;sbeo:assignedRoute&lt;/span&gt;" style="text;html=1;align=center;verticalAlign=middle;resizable=0;points=[];labelBackgroundColor=#ffffff;" vertex="1" connectable="0" parent="5YLZRb2mabN50mvJNGqJ-291">
          <mxGeometry x="0.1724" y="-10" relative="1" as="geometry">
            <mxPoint x="-9.970000000000002" y="-38.34" as="offset" />
          </mxGeometry>
        </mxCell>
        <mxCell id="5YLZRb2mabN50mvJNGqJ-293" value="sbeo:Person" style="ellipse;whiteSpace=wrap;html=1;aspect=fixed;fillColor=#1ba1e2;strokeColor=#006EAF;shadow=0;fontColor=#ffffff;" vertex="1" parent="1">
          <mxGeometry x="-395" y="485" width="80" height="80" as="geometry" />
        </mxCell>
        <mxCell id="5YLZRb2mabN50mvJNGqJ-294" style="edgeStyle=orthogonalEdgeStyle;curved=1;comic=0;orthogonalLoop=1;jettySize=auto;html=1;entryX=1;entryY=0.5;entryDx=0;entryDy=0;shadow=0;startArrow=classic;startFill=1;endArrow=none;endFill=0;dashed=1;exitX=0;exitY=0.5;exitDx=0;exitDy=0;" edge="1" parent="1" source="5YLZRb2mabN50mvJNGqJ-308" target="5YLZRb2mabN50mvJNGqJ-400">
          <mxGeometry relative="1" as="geometry">
            <Array as="points">
              <mxPoint x="-260" y="266" />
            </Array>
          </mxGeometry>
        </mxCell>
        <mxCell id="5YLZRb2mabN50mvJNGqJ-295" value="rdfs:subClassOf" style="text;html=1;align=center;verticalAlign=middle;resizable=0;points=[];labelBackgroundColor=#ffffff;fontColor=#000000;rotation=-5;" vertex="1" connectable="0" parent="5YLZRb2mabN50mvJNGqJ-294">
          <mxGeometry x="0.2353" y="-1" relative="1" as="geometry">
            <mxPoint x="31" y="1" as="offset" />
          </mxGeometry>
        </mxCell>
        <mxCell id="5YLZRb2mabN50mvJNGqJ-296" style="edgeStyle=orthogonalEdgeStyle;curved=1;comic=0;orthogonalLoop=1;jettySize=auto;html=1;entryX=1;entryY=0.5;entryDx=0;entryDy=0;shadow=0;startArrow=classic;startFill=1;endArrow=none;endFill=0;dashed=1;exitX=0;exitY=0.5;exitDx=0;exitDy=0;" edge="1" parent="1" source="5YLZRb2mabN50mvJNGqJ-308" target="5YLZRb2mabN50mvJNGqJ-393">
          <mxGeometry relative="1" as="geometry">
            <Array as="points">
              <mxPoint x="-200" y="266" />
              <mxPoint x="-200" y="376" />
            </Array>
          </mxGeometry>
        </mxCell>
        <mxCell id="5YLZRb2mabN50mvJNGqJ-297" value="rdfs:subClassOf" style="text;html=1;align=center;verticalAlign=middle;resizable=0;points=[];labelBackgroundColor=#ffffff;fontColor=#000000;" vertex="1" connectable="0" parent="5YLZRb2mabN50mvJNGqJ-296">
          <mxGeometry x="0.4935" y="-3" relative="1" as="geometry">
            <mxPoint x="-7.030000000000001" y="-26.910000000000004" as="offset" />
          </mxGeometry>
        </mxCell>
        <mxCell id="5YLZRb2mabN50mvJNGqJ-298" style="edgeStyle=orthogonalEdgeStyle;curved=1;comic=0;orthogonalLoop=1;jettySize=auto;html=1;exitX=0.5;exitY=1;exitDx=0;exitDy=0;entryX=0.5;entryY=0;entryDx=0;entryDy=0;shadow=0;startArrow=classic;startFill=1;endArrow=none;endFill=0;dashed=1;" edge="1" parent="1" source="5YLZRb2mabN50mvJNGqJ-308" target="5YLZRb2mabN50mvJNGqJ-398">
          <mxGeometry relative="1" as="geometry">
            <Array as="points">
              <mxPoint x="-110" y="306" />
            </Array>
          </mxGeometry>
        </mxCell>
        <mxCell id="5YLZRb2mabN50mvJNGqJ-299" value="rdfs:subClassOf" style="text;html=1;align=center;verticalAlign=middle;resizable=0;points=[];labelBackgroundColor=#ffffff;fontColor=#000000;" vertex="1" connectable="0" parent="5YLZRb2mabN50mvJNGqJ-298">
          <mxGeometry x="0.4857" y="6" relative="1" as="geometry">
            <mxPoint x="4.119999999999999" y="-44.49000000000001" as="offset" />
          </mxGeometry>
        </mxCell>
        <mxCell id="5YLZRb2mabN50mvJNGqJ-300" style="edgeStyle=orthogonalEdgeStyle;curved=1;comic=0;orthogonalLoop=1;jettySize=auto;html=1;entryX=0.5;entryY=0;entryDx=0;entryDy=0;shadow=0;startArrow=classic;startFill=1;endArrow=none;endFill=0;dashed=1;exitX=1;exitY=0.5;exitDx=0;exitDy=0;" edge="1" parent="1" source="5YLZRb2mabN50mvJNGqJ-308" target="5YLZRb2mabN50mvJNGqJ-397">
          <mxGeometry relative="1" as="geometry">
            <Array as="points">
              <mxPoint x="-20" y="266" />
            </Array>
          </mxGeometry>
        </mxCell>
        <mxCell id="5YLZRb2mabN50mvJNGqJ-301" value="rdfs:subClassOf" style="text;html=1;align=center;verticalAlign=middle;resizable=0;points=[];labelBackgroundColor=#ffffff;fontColor=#000000;" vertex="1" connectable="0" parent="5YLZRb2mabN50mvJNGqJ-300">
          <mxGeometry x="0.4454" y="-9" relative="1" as="geometry">
            <mxPoint x="-1.0099999999999998" y="-35.379999999999995" as="offset" />
          </mxGeometry>
        </mxCell>
        <mxCell id="5YLZRb2mabN50mvJNGqJ-302" style="edgeStyle=orthogonalEdgeStyle;curved=1;comic=0;orthogonalLoop=1;jettySize=auto;html=1;entryX=0.5;entryY=0;entryDx=0;entryDy=0;shadow=0;startArrow=classic;startFill=1;endArrow=none;endFill=0;exitX=1;exitY=0.5;exitDx=0;exitDy=0;dashed=1;" edge="1" parent="1" source="5YLZRb2mabN50mvJNGqJ-308" target="5YLZRb2mabN50mvJNGqJ-484">
          <mxGeometry relative="1" as="geometry" />
        </mxCell>
        <mxCell id="5YLZRb2mabN50mvJNGqJ-303" value="rdfs:subClassOf" style="text;html=1;align=center;verticalAlign=middle;resizable=0;points=[];labelBackgroundColor=#ffffff;fontColor=#000000;" vertex="1" connectable="0" parent="5YLZRb2mabN50mvJNGqJ-302">
          <mxGeometry x="-0.1445" y="-24" relative="1" as="geometry">
            <mxPoint x="3.969999999999999" y="15.719999999999999" as="offset" />
          </mxGeometry>
        </mxCell>
        <mxCell id="5YLZRb2mabN50mvJNGqJ-304" style="edgeStyle=orthogonalEdgeStyle;curved=1;comic=0;orthogonalLoop=1;jettySize=auto;html=1;exitX=0;exitY=0.5;exitDx=0;exitDy=0;entryX=1;entryY=0;entryDx=0;entryDy=0;shadow=0;startArrow=classic;startFill=1;endArrow=none;endFill=0;dashed=1;" edge="1" parent="1" source="5YLZRb2mabN50mvJNGqJ-308" target="5YLZRb2mabN50mvJNGqJ-399">
          <mxGeometry relative="1" as="geometry" />
        </mxCell>
        <mxCell id="5YLZRb2mabN50mvJNGqJ-305" value="rdfs:subClassOf" style="text;html=1;align=center;verticalAlign=middle;resizable=0;points=[];labelBackgroundColor=#ffffff;fontColor=#000000;" vertex="1" connectable="0" parent="5YLZRb2mabN50mvJNGqJ-304">
          <mxGeometry x="0.7075" y="6" relative="1" as="geometry">
            <mxPoint x="-7.43" y="-39.74" as="offset" />
          </mxGeometry>
        </mxCell>
        <mxCell id="5YLZRb2mabN50mvJNGqJ-306" style="edgeStyle=orthogonalEdgeStyle;curved=1;comic=0;orthogonalLoop=1;jettySize=auto;html=1;exitX=0;exitY=0;exitDx=0;exitDy=0;entryX=0.5;entryY=0;entryDx=0;entryDy=0;shadow=0;startArrow=none;startFill=0;endArrow=classic;endFill=1;fontColor=#000000;" edge="1" parent="1" source="5YLZRb2mabN50mvJNGqJ-308" target="5YLZRb2mabN50mvJNGqJ-456">
          <mxGeometry relative="1" as="geometry">
            <Array as="points">
              <mxPoint x="-117" y="196" />
              <mxPoint x="-201" y="196" />
            </Array>
          </mxGeometry>
        </mxCell>
        <mxCell id="5YLZRb2mabN50mvJNGqJ-307" value="&lt;span style=&quot;background-color: rgb(102 , 255 , 102)&quot;&gt;sbeo:atTime&lt;/span&gt;" style="text;html=1;align=center;verticalAlign=middle;resizable=0;points=[];labelBackgroundColor=#ffffff;" vertex="1" connectable="0" parent="5YLZRb2mabN50mvJNGqJ-306">
          <mxGeometry x="-0.4969" y="-12" relative="1" as="geometry">
            <mxPoint x="-56.7" y="3.620000000000001" as="offset" />
          </mxGeometry>
        </mxCell>
        <mxCell id="5YLZRb2mabN50mvJNGqJ-308" value="sbeo:Incident" style="ellipse;whiteSpace=wrap;html=1;aspect=fixed;fillColor=#dae8fc;strokeColor=#6c8ebf;shadow=0;" vertex="1" parent="1">
          <mxGeometry x="-129" y="226" width="80" height="80" as="geometry" />
        </mxCell>
        <mxCell id="5YLZRb2mabN50mvJNGqJ-309" style="edgeStyle=orthogonalEdgeStyle;curved=1;comic=0;orthogonalLoop=1;jettySize=auto;html=1;entryX=0.5;entryY=1;entryDx=0;entryDy=0;shadow=0;startArrow=none;startFill=0;endArrow=classic;endFill=1;fontColor=#000000;exitX=0;exitY=0;exitDx=0;exitDy=0;" edge="1" parent="1" source="5YLZRb2mabN50mvJNGqJ-315" target="5YLZRb2mabN50mvJNGqJ-457">
          <mxGeometry relative="1" as="geometry">
            <Array as="points">
              <mxPoint x="-658.97" y="371" />
            </Array>
          </mxGeometry>
        </mxCell>
        <mxCell id="5YLZRb2mabN50mvJNGqJ-310" value="&lt;span style=&quot;background-color: rgb(102 , 255 , 102)&quot;&gt;sbeo:hasLength&lt;/span&gt;" style="text;html=1;align=center;verticalAlign=middle;resizable=0;points=[];labelBackgroundColor=#ffffff;" vertex="1" connectable="0" parent="5YLZRb2mabN50mvJNGqJ-309">
          <mxGeometry x="0.2469" y="-1" relative="1" as="geometry">
            <mxPoint x="-1" y="-12.14" as="offset" />
          </mxGeometry>
        </mxCell>
        <mxCell id="5YLZRb2mabN50mvJNGqJ-311" style="edgeStyle=orthogonalEdgeStyle;curved=1;comic=0;orthogonalLoop=1;jettySize=auto;html=1;exitX=0;exitY=0;exitDx=0;exitDy=0;entryX=0;entryY=0.5;entryDx=0;entryDy=0;shadow=0;startArrow=none;startFill=0;endArrow=classic;endFill=1;fontColor=#000000;" edge="1" parent="1" source="5YLZRb2mabN50mvJNGqJ-315" target="5YLZRb2mabN50mvJNGqJ-468">
          <mxGeometry relative="1" as="geometry">
            <Array as="points">
              <mxPoint x="-769.97" y="371" />
              <mxPoint x="-769.97" y="244" />
            </Array>
          </mxGeometry>
        </mxCell>
        <mxCell id="5YLZRb2mabN50mvJNGqJ-312" value="&lt;span style=&quot;background-color: rgb(102 , 255 , 255)&quot;&gt;sbeo:endsIn&lt;/span&gt;" style="text;html=1;align=center;verticalAlign=middle;resizable=0;points=[];labelBackgroundColor=#ffffff;" vertex="1" connectable="0" parent="5YLZRb2mabN50mvJNGqJ-311">
          <mxGeometry x="-0.028" y="-8" relative="1" as="geometry">
            <mxPoint x="-33.25999999999999" y="-84.53" as="offset" />
          </mxGeometry>
        </mxCell>
        <mxCell id="5YLZRb2mabN50mvJNGqJ-313" style="edgeStyle=orthogonalEdgeStyle;curved=1;comic=0;orthogonalLoop=1;jettySize=auto;html=1;exitX=0;exitY=0;exitDx=0;exitDy=0;entryX=0;entryY=0.5;entryDx=0;entryDy=0;shadow=0;startArrow=none;startFill=0;endArrow=classic;endFill=1;fontColor=#000000;" edge="1" parent="1" source="5YLZRb2mabN50mvJNGqJ-315" target="5YLZRb2mabN50mvJNGqJ-468">
          <mxGeometry relative="1" as="geometry">
            <Array as="points">
              <mxPoint x="-879.97" y="371" />
              <mxPoint x="-879.97" y="244" />
            </Array>
          </mxGeometry>
        </mxCell>
        <mxCell id="5YLZRb2mabN50mvJNGqJ-314" value="&lt;span style=&quot;background-color: rgb(102 , 255 , 255)&quot;&gt;sbeo:hasPath&lt;/span&gt;" style="text;html=1;align=center;verticalAlign=middle;resizable=0;points=[];labelBackgroundColor=#ffffff;" vertex="1" connectable="0" parent="5YLZRb2mabN50mvJNGqJ-313">
          <mxGeometry x="0.3597" y="-6" relative="1" as="geometry">
            <mxPoint x="-6.03" y="43.739999999999995" as="offset" />
          </mxGeometry>
        </mxCell>
        <mxCell id="5YLZRb2mabN50mvJNGqJ-315" value="sbeo:Route" style="ellipse;whiteSpace=wrap;html=1;aspect=fixed;fillColor=#dae8fc;strokeColor=#6c8ebf;shadow=0;" vertex="1" parent="1">
          <mxGeometry x="-530.97" y="368" width="80" height="80" as="geometry" />
        </mxCell>
        <mxCell id="5YLZRb2mabN50mvJNGqJ-316" style="edgeStyle=orthogonalEdgeStyle;curved=1;comic=0;orthogonalLoop=1;jettySize=auto;html=1;entryX=0;entryY=0.5;entryDx=0;entryDy=0;shadow=0;startArrow=classic;startFill=1;endArrow=none;endFill=0;dashed=1;" edge="1" parent="1" source="5YLZRb2mabN50mvJNGqJ-322" target="5YLZRb2mabN50mvJNGqJ-453">
          <mxGeometry relative="1" as="geometry" />
        </mxCell>
        <mxCell id="5YLZRb2mabN50mvJNGqJ-317" value="rdfs:subClassOf" style="text;html=1;align=center;verticalAlign=middle;resizable=0;points=[];labelBackgroundColor=#ffffff;fontColor=#000000;" vertex="1" connectable="0" parent="5YLZRb2mabN50mvJNGqJ-316">
          <mxGeometry x="-0.4006" y="22" relative="1" as="geometry">
            <mxPoint x="26" y="7.5" as="offset" />
          </mxGeometry>
        </mxCell>
        <mxCell id="5YLZRb2mabN50mvJNGqJ-318" style="edgeStyle=orthogonalEdgeStyle;curved=1;comic=0;orthogonalLoop=1;jettySize=auto;html=1;exitX=1;exitY=0.5;exitDx=0;exitDy=0;entryX=0;entryY=0.5;entryDx=0;entryDy=0;shadow=0;startArrow=classic;startFill=1;endArrow=none;endFill=0;dashed=1;" edge="1" parent="1" source="5YLZRb2mabN50mvJNGqJ-322" target="5YLZRb2mabN50mvJNGqJ-432">
          <mxGeometry relative="1" as="geometry" />
        </mxCell>
        <mxCell id="5YLZRb2mabN50mvJNGqJ-319" value="rdfs:subClassOf" style="text;html=1;align=center;verticalAlign=middle;resizable=0;points=[];labelBackgroundColor=#ffffff;fontColor=#000000;" vertex="1" connectable="0" parent="5YLZRb2mabN50mvJNGqJ-318">
          <mxGeometry x="0.2927" y="8" relative="1" as="geometry">
            <mxPoint x="26.000000000000004" y="-8.41" as="offset" />
          </mxGeometry>
        </mxCell>
        <mxCell id="5YLZRb2mabN50mvJNGqJ-320" style="edgeStyle=orthogonalEdgeStyle;curved=1;comic=0;orthogonalLoop=1;jettySize=auto;html=1;entryX=0.5;entryY=0;entryDx=0;entryDy=0;shadow=0;startArrow=classic;startFill=1;endArrow=none;endFill=0;dashed=1;exitX=1;exitY=0.5;exitDx=0;exitDy=0;" edge="1" parent="1" source="5YLZRb2mabN50mvJNGqJ-322" target="5YLZRb2mabN50mvJNGqJ-436">
          <mxGeometry relative="1" as="geometry">
            <Array as="points">
              <mxPoint x="1081" y="274" />
              <mxPoint x="1081" y="456" />
              <mxPoint x="1001" y="456" />
            </Array>
          </mxGeometry>
        </mxCell>
        <mxCell id="5YLZRb2mabN50mvJNGqJ-321" value="rdfs:subClassOf" style="text;html=1;align=center;verticalAlign=middle;resizable=0;points=[];labelBackgroundColor=#ffffff;fontColor=#000000;" vertex="1" connectable="0" parent="5YLZRb2mabN50mvJNGqJ-320">
          <mxGeometry x="0.3118" y="1" relative="1" as="geometry">
            <mxPoint x="-2" y="-9.879999999999999" as="offset" />
          </mxGeometry>
        </mxCell>
        <mxCell id="5YLZRb2mabN50mvJNGqJ-322" value="sbeo:Space&lt;br&gt;Characteristic" style="ellipse;aspect=fixed;fillColor=#dae8fc;strokeColor=#6c8ebf;horizontal=1;verticalAlign=middle;align=center;labelBorderColor=none;whiteSpace=wrap;html=1;shadow=0;" vertex="1" parent="1">
          <mxGeometry x="961" y="233.5" width="80" height="80" as="geometry" />
        </mxCell>
        <mxCell id="5YLZRb2mabN50mvJNGqJ-323" style="edgeStyle=orthogonalEdgeStyle;curved=1;comic=0;orthogonalLoop=1;jettySize=auto;html=1;entryX=0.5;entryY=0;entryDx=0;entryDy=0;shadow=0;startArrow=classic;startFill=1;endArrow=none;endFill=0;dashed=1;exitX=0.5;exitY=1;exitDx=0;exitDy=0;" edge="1" parent="1" source="5YLZRb2mabN50mvJNGqJ-327" target="5YLZRb2mabN50mvJNGqJ-351">
          <mxGeometry relative="1" as="geometry">
            <Array as="points">
              <mxPoint x="440" y="346" />
              <mxPoint x="370" y="346" />
            </Array>
          </mxGeometry>
        </mxCell>
        <mxCell id="5YLZRb2mabN50mvJNGqJ-324" value="rdfs:subClassOf" style="text;html=1;align=center;verticalAlign=middle;resizable=0;points=[];labelBackgroundColor=#ffffff;fontColor=#000000;" vertex="1" connectable="0" parent="5YLZRb2mabN50mvJNGqJ-323">
          <mxGeometry x="0.5489" y="4" relative="1" as="geometry">
            <mxPoint x="15.970000000000013" y="-0.79" as="offset" />
          </mxGeometry>
        </mxCell>
        <mxCell id="5YLZRb2mabN50mvJNGqJ-325" style="edgeStyle=orthogonalEdgeStyle;curved=1;comic=0;orthogonalLoop=1;jettySize=auto;html=1;exitX=0;exitY=0;exitDx=0;exitDy=0;entryX=0.5;entryY=0;entryDx=0;entryDy=0;shadow=0;startArrow=none;startFill=0;endArrow=classic;endFill=1;fontColor=#000000;" edge="1" parent="1" source="5YLZRb2mabN50mvJNGqJ-327" target="5YLZRb2mabN50mvJNGqJ-487">
          <mxGeometry relative="1" as="geometry">
            <Array as="points">
              <mxPoint x="412" y="216" />
              <mxPoint x="219" y="216" />
            </Array>
          </mxGeometry>
        </mxCell>
        <mxCell id="5YLZRb2mabN50mvJNGqJ-326" value="&lt;span style=&quot;background-color: rgb(102 , 255 , 102)&quot;&gt;sbeo:accomodation&lt;/span&gt;&lt;br&gt;&lt;span style=&quot;background-color: rgb(102 , 255 , 102)&quot;&gt;Capacity&lt;/span&gt;" style="text;html=1;align=center;verticalAlign=middle;resizable=0;points=[];labelBackgroundColor=#ffffff;" vertex="1" connectable="0" parent="5YLZRb2mabN50mvJNGqJ-325">
          <mxGeometry x="0.1062" y="-1" relative="1" as="geometry">
            <mxPoint x="24.240000000000002" y="0.5" as="offset" />
          </mxGeometry>
        </mxCell>
        <mxCell id="5YLZRb2mabN50mvJNGqJ-327" value="seas:Zone" style="ellipse;whiteSpace=wrap;html=1;aspect=fixed;fillColor=#1ba1e2;strokeColor=#006EAF;fontColor=#ffffff;shadow=0;" vertex="1" parent="1">
          <mxGeometry x="400" y="233.49999999999977" width="80" height="80" as="geometry" />
        </mxCell>
        <mxCell id="5YLZRb2mabN50mvJNGqJ-328" style="edgeStyle=orthogonalEdgeStyle;curved=1;comic=0;orthogonalLoop=1;jettySize=auto;html=1;exitX=0;exitY=0.5;exitDx=0;exitDy=0;entryX=0;entryY=0.5;entryDx=0;entryDy=0;shadow=0;startArrow=classic;startFill=1;endArrow=none;endFill=0;dashed=1;" edge="1" parent="1" source="5YLZRb2mabN50mvJNGqJ-345" target="5YLZRb2mabN50mvJNGqJ-276">
          <mxGeometry relative="1" as="geometry">
            <Array as="points">
              <mxPoint x="100" y="146" />
              <mxPoint x="100" y="324" />
            </Array>
          </mxGeometry>
        </mxCell>
        <mxCell id="5YLZRb2mabN50mvJNGqJ-329" value="rdfs:subClassOf" style="text;html=1;align=center;verticalAlign=middle;resizable=0;points=[];labelBackgroundColor=#ffffff;fontColor=#000000;" vertex="1" connectable="0" parent="5YLZRb2mabN50mvJNGqJ-328">
          <mxGeometry x="-0.1458" y="-2" relative="1" as="geometry">
            <mxPoint x="5" y="13.620000000000001" as="offset" />
          </mxGeometry>
        </mxCell>
        <mxCell id="5YLZRb2mabN50mvJNGqJ-330" style="edgeStyle=orthogonalEdgeStyle;curved=1;comic=0;orthogonalLoop=1;jettySize=auto;html=1;exitX=0;exitY=0.5;exitDx=0;exitDy=0;entryX=0.5;entryY=0;entryDx=0;entryDy=0;shadow=0;startArrow=classic;startFill=1;endArrow=none;endFill=0;dashed=1;" edge="1" parent="1" source="5YLZRb2mabN50mvJNGqJ-345" target="5YLZRb2mabN50mvJNGqJ-308">
          <mxGeometry relative="1" as="geometry">
            <Array as="points">
              <mxPoint x="-89" y="146" />
            </Array>
          </mxGeometry>
        </mxCell>
        <mxCell id="5YLZRb2mabN50mvJNGqJ-331" value="rdfs:subClassOf" style="text;html=1;align=center;verticalAlign=middle;resizable=0;points=[];labelBackgroundColor=#ffffff;fontColor=#000000;" vertex="1" connectable="0" parent="5YLZRb2mabN50mvJNGqJ-330">
          <mxGeometry x="0.8654" y="-15" relative="1" as="geometry">
            <mxPoint x="73.85" y="-29.68" as="offset" />
          </mxGeometry>
        </mxCell>
        <mxCell id="5YLZRb2mabN50mvJNGqJ-332" style="edgeStyle=orthogonalEdgeStyle;curved=1;comic=0;orthogonalLoop=1;jettySize=auto;html=1;exitX=1;exitY=0.5;exitDx=0;exitDy=0;shadow=0;startArrow=classic;startFill=1;endArrow=none;endFill=0;dashed=1;entryX=0.5;entryY=0;entryDx=0;entryDy=0;" edge="1" parent="1" source="5YLZRb2mabN50mvJNGqJ-345" target="5YLZRb2mabN50mvJNGqJ-322">
          <mxGeometry relative="1" as="geometry">
            <Array as="points">
              <mxPoint x="1001" y="146" />
            </Array>
          </mxGeometry>
        </mxCell>
        <mxCell id="5YLZRb2mabN50mvJNGqJ-333" value="rdfs:subClassOf" style="text;html=1;align=center;verticalAlign=middle;resizable=0;points=[];labelBackgroundColor=#ffffff;fontColor=#000000;" vertex="1" connectable="0" parent="5YLZRb2mabN50mvJNGqJ-332">
          <mxGeometry x="0.7195" y="-25" relative="1" as="geometry">
            <mxPoint x="15" y="33" as="offset" />
          </mxGeometry>
        </mxCell>
        <mxCell id="5YLZRb2mabN50mvJNGqJ-334" style="edgeStyle=orthogonalEdgeStyle;curved=1;comic=0;orthogonalLoop=1;jettySize=auto;html=1;exitX=1;exitY=0.5;exitDx=0;exitDy=0;entryX=0.5;entryY=0;entryDx=0;entryDy=0;shadow=0;startArrow=classic;startFill=1;endArrow=none;endFill=0;dashed=1;" edge="1" parent="1" source="5YLZRb2mabN50mvJNGqJ-345" target="5YLZRb2mabN50mvJNGqJ-327">
          <mxGeometry relative="1" as="geometry">
            <Array as="points">
              <mxPoint x="440" y="146" />
            </Array>
          </mxGeometry>
        </mxCell>
        <mxCell id="5YLZRb2mabN50mvJNGqJ-335" value="rdfs:subClassOf" style="text;html=1;align=center;verticalAlign=middle;resizable=0;points=[];labelBackgroundColor=#ffffff;fontColor=#000000;" vertex="1" connectable="0" parent="5YLZRb2mabN50mvJNGqJ-334">
          <mxGeometry x="0.9604" y="-7" relative="1" as="geometry">
            <mxPoint x="-43" y="-56.9" as="offset" />
          </mxGeometry>
        </mxCell>
        <mxCell id="5YLZRb2mabN50mvJNGqJ-336" style="edgeStyle=orthogonalEdgeStyle;curved=1;comic=0;orthogonalLoop=1;jettySize=auto;html=1;exitX=1;exitY=0.5;exitDx=0;exitDy=0;shadow=0;startArrow=classic;startFill=1;endArrow=none;endFill=0;dashed=1;entryX=0.5;entryY=0;entryDx=0;entryDy=0;" edge="1" parent="1" source="5YLZRb2mabN50mvJNGqJ-345" target="5YLZRb2mabN50mvJNGqJ-277">
          <mxGeometry relative="1" as="geometry">
            <Array as="points">
              <mxPoint x="680" y="146" />
            </Array>
            <mxPoint x="250" y="359" as="targetPoint" />
          </mxGeometry>
        </mxCell>
        <mxCell id="5YLZRb2mabN50mvJNGqJ-337" value="rdfs:subClassOf" style="text;html=1;align=center;verticalAlign=middle;resizable=0;points=[];labelBackgroundColor=#ffffff;fontColor=#000000;" vertex="1" connectable="0" parent="5YLZRb2mabN50mvJNGqJ-336">
          <mxGeometry x="0.939" y="-19" relative="1" as="geometry">
            <mxPoint x="8.82" y="-10.170000000000002" as="offset" />
          </mxGeometry>
        </mxCell>
        <mxCell id="5YLZRb2mabN50mvJNGqJ-338" style="edgeStyle=orthogonalEdgeStyle;comic=0;orthogonalLoop=1;jettySize=auto;html=1;shadow=0;startArrow=classic;startFill=1;endArrow=none;endFill=0;curved=1;dashed=1;exitX=1;exitY=0.5;exitDx=0;exitDy=0;entryX=0.5;entryY=0;entryDx=0;entryDy=0;" edge="1" parent="1" source="5YLZRb2mabN50mvJNGqJ-345" target="5YLZRb2mabN50mvJNGqJ-392">
          <mxGeometry relative="1" as="geometry">
            <Array as="points">
              <mxPoint x="872" y="146" />
            </Array>
          </mxGeometry>
        </mxCell>
        <mxCell id="5YLZRb2mabN50mvJNGqJ-339" value="rdfs:subClassOf" style="text;align=center;verticalAlign=middle;resizable=0;points=[];labelBackgroundColor=#ffffff;" vertex="1" connectable="0" parent="5YLZRb2mabN50mvJNGqJ-338">
          <mxGeometry x="0.2476" y="18" relative="1" as="geometry">
            <mxPoint x="166.66999999999996" y="76" as="offset" />
          </mxGeometry>
        </mxCell>
        <mxCell id="5YLZRb2mabN50mvJNGqJ-340" style="edgeStyle=orthogonalEdgeStyle;curved=1;comic=0;orthogonalLoop=1;jettySize=auto;html=1;shadow=0;startArrow=classic;startFill=1;endArrow=none;endFill=0;dashed=1;" edge="1" parent="1" source="5YLZRb2mabN50mvJNGqJ-345" target="5YLZRb2mabN50mvJNGqJ-315">
          <mxGeometry relative="1" as="geometry" />
        </mxCell>
        <mxCell id="5YLZRb2mabN50mvJNGqJ-341" value="rdfs:subClassOf" style="text;align=center;verticalAlign=middle;resizable=0;points=[];labelBackgroundColor=#ffffff;labelBorderColor=none;fontColor=#000000;rotation=0;" vertex="1" connectable="0" parent="5YLZRb2mabN50mvJNGqJ-340">
          <mxGeometry x="0.5021" y="43" relative="1" as="geometry">
            <mxPoint x="28.000000000000007" y="191.01000000000002" as="offset" />
          </mxGeometry>
        </mxCell>
        <mxCell id="5YLZRb2mabN50mvJNGqJ-342" style="edgeStyle=orthogonalEdgeStyle;curved=1;comic=0;orthogonalLoop=1;jettySize=auto;html=1;entryX=-0.022;entryY=0.398;entryDx=0;entryDy=0;shadow=0;startArrow=classic;startFill=1;endArrow=none;endFill=0;dashed=1;entryPerimeter=0;" edge="1" parent="1" source="5YLZRb2mabN50mvJNGqJ-345" target="5YLZRb2mabN50mvJNGqJ-293">
          <mxGeometry relative="1" as="geometry">
            <Array as="points">
              <mxPoint x="-440" y="146" />
              <mxPoint x="-440" y="517" />
            </Array>
          </mxGeometry>
        </mxCell>
        <mxCell id="5YLZRb2mabN50mvJNGqJ-343" value="&lt;span style=&quot;color: rgba(0 , 0 , 0 , 0) ; font-family: monospace ; font-size: 0px ; background-color: rgb(248 , 249 , 250)&quot;&gt;%3CmxGraphModel%3E%3Croot%3E%3CmxCell%20id%3D%220%22%2F%3E%3CmxCell%20id%3D%221%22%20parent%3D%220%22%2F%3E%3CmxCell%20id%3D%222%22%20value%3D%22rdfs%3AsubClassOf%22%20style%3D%22text%3Balign%3Dcenter%3BverticalAlign%3Dmiddle%3Bresizable%3D0%3Bpoints%3D%5B%5D%3BlabelBackgroundColor%3D%23ffffff%3BlabelBorderColor%3Dnone%3B%22%20vertex%3D%221%22%20connectable%3D%220%22%20parent%3D%221%22%3E%3CmxGeometry%20x%3D%22-372.9970588235292%22%20y%3D%22100%22%20as%3D%22geometry%22%3E%3CmxPoint%20x%3D%2224.65%22%20y%3D%22-3%22%20as%3D%22offset%22%2F%3E%3C%2FmxGeometry%3E%3C%2FmxCell%3E%3C%2Froot%3E%3C%2FmxGraphModel%3E&lt;/span&gt;&lt;span style=&quot;color: rgba(0 , 0 , 0 , 0) ; font-family: monospace ; font-size: 0px ; background-color: rgb(248 , 249 , 250)&quot;&gt;%3CmxGraphModel%3E%3Croot%3E%3CmxCell%20id%3D%220%22%2F%3E%3CmxCell%20id%3D%221%22%20parent%3D%220%22%2F%3E%3CmxCell%20id%3D%222%22%20value%3D%22rdfs%3AsubClassOf%22%20style%3D%22text%3Balign%3Dcenter%3BverticalAlign%3Dmiddle%3Bresizable%3D0%3Bpoints%3D%5B%5D%3BlabelBackgroundColor%3D%23ffffff%3BlabelBorderColor%3Dnone%3B%22%20vertex%3D%221%22%20connectable%3D%220%22%20parent%3D%221%22%3E%3CmxGeometry%20x%3D%22-372.9970588235292%22%20y%3D%22100%22%20as%3D%22geometry%22%3E%3CmxPoint%20x%3D%2224.65%22%20y%3D%22-3%22%20as%3D%22offset%22%2F%3E%3C%2FmxGeometry%3E%3C%2FmxCell%3E%3C%2Froot%3E%3C%2FmxGraphModel%3E&lt;/span&gt;" style="text;html=1;align=center;verticalAlign=middle;resizable=0;points=[];labelBackgroundColor=#ffffff;fontColor=#000000;" vertex="1" connectable="0" parent="5YLZRb2mabN50mvJNGqJ-342">
          <mxGeometry x="-0.0207" y="103" relative="1" as="geometry">
            <mxPoint x="1" as="offset" />
          </mxGeometry>
        </mxCell>
        <mxCell id="5YLZRb2mabN50mvJNGqJ-344" value="rdfs:subClassOf" style="text;html=1;align=center;verticalAlign=middle;resizable=0;points=[];labelBackgroundColor=#ffffff;fontColor=#000000;" vertex="1" connectable="0" parent="5YLZRb2mabN50mvJNGqJ-342">
          <mxGeometry x="-0.035" y="98" relative="1" as="geometry">
            <mxPoint x="-148.33" y="76" as="offset" />
          </mxGeometry>
        </mxCell>
        <mxCell id="5YLZRb2mabN50mvJNGqJ-345" value="owl:Thing" style="ellipse;whiteSpace=wrap;html=1;aspect=fixed;shadow=0;" vertex="1" parent="1">
          <mxGeometry x="130" y="106" width="80" height="80" as="geometry" />
        </mxCell>
        <mxCell id="5YLZRb2mabN50mvJNGqJ-346" style="edgeStyle=orthogonalEdgeStyle;curved=1;comic=0;orthogonalLoop=1;jettySize=auto;html=1;exitX=0.5;exitY=1;exitDx=0;exitDy=0;shadow=0;startArrow=classic;startFill=1;endArrow=none;endFill=0;dashed=1;" edge="1" parent="1" source="5YLZRb2mabN50mvJNGqJ-348" target="5YLZRb2mabN50mvJNGqJ-372">
          <mxGeometry relative="1" as="geometry" />
        </mxCell>
        <mxCell id="5YLZRb2mabN50mvJNGqJ-347" value="rdfs:subClassOf" style="text;html=1;align=center;verticalAlign=middle;resizable=0;points=[];labelBackgroundColor=#ffffff;fontColor=#000000;" vertex="1" connectable="0" parent="5YLZRb2mabN50mvJNGqJ-346">
          <mxGeometry x="-0.1658" y="1" relative="1" as="geometry">
            <mxPoint as="offset" />
          </mxGeometry>
        </mxCell>
        <mxCell id="5YLZRb2mabN50mvJNGqJ-348" value="sbeo:Incident&lt;br&gt;Protection" style="ellipse;whiteSpace=wrap;html=1;aspect=fixed;fillColor=#dae8fc;strokeColor=#6c8ebf;shadow=0;" vertex="1" parent="1">
          <mxGeometry x="50" y="456" width="80" height="80" as="geometry" />
        </mxCell>
        <mxCell id="5YLZRb2mabN50mvJNGqJ-349" style="edgeStyle=orthogonalEdgeStyle;curved=1;comic=0;orthogonalLoop=1;jettySize=auto;html=1;shadow=0;startArrow=classic;startFill=1;endArrow=none;endFill=0;dashed=1;exitX=1;exitY=0.5;exitDx=0;exitDy=0;" edge="1" parent="1" source="5YLZRb2mabN50mvJNGqJ-351" target="5YLZRb2mabN50mvJNGqJ-356">
          <mxGeometry relative="1" as="geometry" />
        </mxCell>
        <mxCell id="5YLZRb2mabN50mvJNGqJ-350" value="rdfs:subClassOf" style="text;html=1;align=center;verticalAlign=middle;resizable=0;points=[];labelBackgroundColor=#ffffff;fontColor=#000000;" vertex="1" connectable="0" parent="5YLZRb2mabN50mvJNGqJ-349">
          <mxGeometry x="-0.3157" y="-24" relative="1" as="geometry">
            <mxPoint x="24" y="35.239999999999995" as="offset" />
          </mxGeometry>
        </mxCell>
        <mxCell id="5YLZRb2mabN50mvJNGqJ-351" value="seas:Building&lt;br&gt;Space" style="ellipse;whiteSpace=wrap;html=1;aspect=fixed;fillColor=#1ba1e2;strokeColor=#006EAF;fontColor=#ffffff;shadow=0;" vertex="1" parent="1">
          <mxGeometry x="330" y="380.9999999999998" width="80" height="80" as="geometry" />
        </mxCell>
        <mxCell id="5YLZRb2mabN50mvJNGqJ-352" style="edgeStyle=orthogonalEdgeStyle;curved=1;comic=0;orthogonalLoop=1;jettySize=auto;html=1;exitX=0.5;exitY=1;exitDx=0;exitDy=0;shadow=0;startArrow=classic;startFill=1;endArrow=none;endFill=0;entryX=0.5;entryY=0;entryDx=0;entryDy=0;dashed=1;" edge="1" parent="1" source="5YLZRb2mabN50mvJNGqJ-356" target="5YLZRb2mabN50mvJNGqJ-357">
          <mxGeometry relative="1" as="geometry">
            <Array as="points" />
          </mxGeometry>
        </mxCell>
        <mxCell id="5YLZRb2mabN50mvJNGqJ-353" value="rdfs:subClassOf" style="text;html=1;align=center;verticalAlign=middle;resizable=0;points=[];labelBackgroundColor=#ffffff;" vertex="1" connectable="0" parent="5YLZRb2mabN50mvJNGqJ-352">
          <mxGeometry x="0.2131" y="1" relative="1" as="geometry">
            <mxPoint x="-1" y="-5.070000000000004" as="offset" />
          </mxGeometry>
        </mxCell>
        <mxCell id="5YLZRb2mabN50mvJNGqJ-354" style="edgeStyle=orthogonalEdgeStyle;curved=1;comic=0;orthogonalLoop=1;jettySize=auto;html=1;entryX=0.454;entryY=0.012;entryDx=0;entryDy=0;shadow=0;startArrow=classic;startFill=1;endArrow=none;endFill=0;dashed=1;exitX=1;exitY=0.5;exitDx=0;exitDy=0;entryPerimeter=0;" edge="1" parent="1" source="5YLZRb2mabN50mvJNGqJ-356" target="5YLZRb2mabN50mvJNGqJ-358">
          <mxGeometry relative="1" as="geometry">
            <Array as="points">
              <mxPoint x="550" y="551" />
              <mxPoint x="550" y="645" />
            </Array>
          </mxGeometry>
        </mxCell>
        <mxCell id="5YLZRb2mabN50mvJNGqJ-355" value="rdfs:subClassOf" style="text;html=1;align=center;verticalAlign=middle;resizable=0;points=[];labelBackgroundColor=#ffffff;fontColor=#000000;" vertex="1" connectable="0" parent="5YLZRb2mabN50mvJNGqJ-354">
          <mxGeometry x="-0.1822" y="-30" relative="1" as="geometry">
            <mxPoint x="32.99999999999999" y="67.93" as="offset" />
          </mxGeometry>
        </mxCell>
        <mxCell id="5YLZRb2mabN50mvJNGqJ-356" value="seas:Room" style="ellipse;whiteSpace=wrap;html=1;aspect=fixed;fillColor=#1ba1e2;strokeColor=#006EAF;fontColor=#ffffff;shadow=0;" vertex="1" parent="1">
          <mxGeometry x="410" y="510.9999999999998" width="80" height="80" as="geometry" />
        </mxCell>
        <mxCell id="5YLZRb2mabN50mvJNGqJ-357" value="sbeo:DayCare" style="ellipse;whiteSpace=wrap;html=1;aspect=fixed;fillColor=#dae8fc;strokeColor=#6c8ebf;shadow=0;" vertex="1" parent="1">
          <mxGeometry x="410" y="663.0000000000001" width="80" height="80" as="geometry" />
        </mxCell>
        <mxCell id="5YLZRb2mabN50mvJNGqJ-358" value="sbeo:KidsArea" style="ellipse;whiteSpace=wrap;html=1;aspect=fixed;fillColor=#dae8fc;strokeColor=#6c8ebf;shadow=0;" vertex="1" parent="1">
          <mxGeometry x="513" y="664" width="80" height="80" as="geometry" />
        </mxCell>
        <mxCell id="5YLZRb2mabN50mvJNGqJ-359" style="edgeStyle=orthogonalEdgeStyle;curved=1;comic=0;orthogonalLoop=1;jettySize=auto;html=1;shadow=0;startArrow=classic;startFill=1;endArrow=none;endFill=0;dashed=1;" edge="1" parent="1" source="5YLZRb2mabN50mvJNGqJ-367" target="5YLZRb2mabN50mvJNGqJ-375">
          <mxGeometry relative="1" as="geometry">
            <Array as="points">
              <mxPoint x="193" y="566" />
              <mxPoint x="160" y="566" />
            </Array>
          </mxGeometry>
        </mxCell>
        <mxCell id="5YLZRb2mabN50mvJNGqJ-360" value="rdfs:subClassOf" style="text;html=1;align=center;verticalAlign=middle;resizable=0;points=[];labelBackgroundColor=#ffffff;fontColor=#000000;" vertex="1" connectable="0" parent="5YLZRb2mabN50mvJNGqJ-359">
          <mxGeometry x="0.2353" y="7" relative="1" as="geometry">
            <mxPoint x="-7" y="23.93" as="offset" />
          </mxGeometry>
        </mxCell>
        <mxCell id="5YLZRb2mabN50mvJNGqJ-361" style="edgeStyle=orthogonalEdgeStyle;curved=1;comic=0;orthogonalLoop=1;jettySize=auto;html=1;exitX=0.5;exitY=1;exitDx=0;exitDy=0;shadow=0;startArrow=classic;startFill=1;endArrow=none;endFill=0;dashed=1;" edge="1" parent="1" source="5YLZRb2mabN50mvJNGqJ-367" target="5YLZRb2mabN50mvJNGqJ-374">
          <mxGeometry relative="1" as="geometry">
            <Array as="points">
              <mxPoint x="193" y="566" />
              <mxPoint x="261" y="566" />
            </Array>
          </mxGeometry>
        </mxCell>
        <mxCell id="5YLZRb2mabN50mvJNGqJ-362" value="rdfs:subClassOf" style="text;html=1;align=center;verticalAlign=middle;resizable=0;points=[];labelBackgroundColor=#ffffff;fontColor=#000000;" vertex="1" connectable="0" parent="5YLZRb2mabN50mvJNGqJ-361">
          <mxGeometry x="0.4366" y="-10" relative="1" as="geometry">
            <mxPoint x="10" y="22.93" as="offset" />
          </mxGeometry>
        </mxCell>
        <mxCell id="5YLZRb2mabN50mvJNGqJ-363" style="edgeStyle=orthogonalEdgeStyle;curved=1;comic=0;orthogonalLoop=1;jettySize=auto;html=1;entryX=0.5;entryY=0;entryDx=0;entryDy=0;shadow=0;startArrow=classic;startFill=1;endArrow=none;endFill=0;exitX=0.5;exitY=1;exitDx=0;exitDy=0;dashed=1;" edge="1" parent="1" source="5YLZRb2mabN50mvJNGqJ-367" target="5YLZRb2mabN50mvJNGqJ-373">
          <mxGeometry relative="1" as="geometry">
            <Array as="points">
              <mxPoint x="193" y="566" />
              <mxPoint x="360" y="566" />
            </Array>
          </mxGeometry>
        </mxCell>
        <mxCell id="5YLZRb2mabN50mvJNGqJ-364" value="rdfs:subClassOf" style="text;html=1;align=center;verticalAlign=middle;resizable=0;points=[];labelBackgroundColor=#ffffff;fontColor=#000000;" vertex="1" connectable="0" parent="5YLZRb2mabN50mvJNGqJ-363">
          <mxGeometry x="0.4014" y="1" relative="1" as="geometry">
            <mxPoint x="21.999999999999996" y="33.93" as="offset" />
          </mxGeometry>
        </mxCell>
        <mxCell id="5YLZRb2mabN50mvJNGqJ-365" style="edgeStyle=orthogonalEdgeStyle;curved=1;comic=0;orthogonalLoop=1;jettySize=auto;html=1;entryX=0.5;entryY=1;entryDx=0;entryDy=0;shadow=0;startArrow=none;startFill=0;endArrow=classic;endFill=1;fontColor=#000000;exitX=0.993;exitY=0.46;exitDx=0;exitDy=0;exitPerimeter=0;" edge="1" parent="1" source="5YLZRb2mabN50mvJNGqJ-367" target="5YLZRb2mabN50mvJNGqJ-455">
          <mxGeometry relative="1" as="geometry">
            <Array as="points">
              <mxPoint x="289" y="493" />
            </Array>
          </mxGeometry>
        </mxCell>
        <mxCell id="5YLZRb2mabN50mvJNGqJ-366" value="&lt;span style=&quot;background-color: rgb(102 , 255 , 102)&quot;&gt;sbeo:atTime&lt;/span&gt;" style="text;html=1;align=center;verticalAlign=middle;resizable=0;points=[];labelBackgroundColor=#ffffff;" vertex="1" connectable="0" parent="5YLZRb2mabN50mvJNGqJ-365">
          <mxGeometry x="-0.2415" y="-7" relative="1" as="geometry">
            <mxPoint x="-8.44" y="-58.8" as="offset" />
          </mxGeometry>
        </mxCell>
        <mxCell id="5YLZRb2mabN50mvJNGqJ-367" value="sbeo:Sensor" style="ellipse;whiteSpace=wrap;html=1;aspect=fixed;fillColor=#dae8fc;strokeColor=#6c8ebf;shadow=0;" vertex="1" parent="1">
          <mxGeometry x="153" y="456" width="80" height="80" as="geometry" />
        </mxCell>
        <mxCell id="5YLZRb2mabN50mvJNGqJ-368" style="edgeStyle=orthogonalEdgeStyle;curved=1;comic=0;orthogonalLoop=1;jettySize=auto;html=1;exitX=0;exitY=0.5;exitDx=0;exitDy=0;shadow=0;startArrow=classic;startFill=1;endArrow=none;endFill=0;dashed=1;entryX=1;entryY=0;entryDx=0;entryDy=0;" edge="1" parent="1" source="5YLZRb2mabN50mvJNGqJ-372" target="5YLZRb2mabN50mvJNGqJ-380">
          <mxGeometry relative="1" as="geometry">
            <Array as="points">
              <mxPoint x="-10" y="610" />
              <mxPoint x="-10" y="676" />
            </Array>
          </mxGeometry>
        </mxCell>
        <mxCell id="5YLZRb2mabN50mvJNGqJ-369" value="rdfs:subClassOf" style="text;html=1;align=center;verticalAlign=middle;resizable=0;points=[];labelBackgroundColor=#ffffff;fontColor=#000000;" vertex="1" connectable="0" parent="5YLZRb2mabN50mvJNGqJ-368">
          <mxGeometry x="-0.3578" y="-8" relative="1" as="geometry">
            <mxPoint x="8" y="29.310000000000002" as="offset" />
          </mxGeometry>
        </mxCell>
        <mxCell id="5YLZRb2mabN50mvJNGqJ-370" style="edgeStyle=orthogonalEdgeStyle;curved=1;comic=0;orthogonalLoop=1;jettySize=auto;html=1;shadow=0;startArrow=classic;startFill=1;endArrow=none;endFill=0;exitX=0.5;exitY=1;exitDx=0;exitDy=0;dashed=1;entryX=0.5;entryY=0;entryDx=0;entryDy=0;" edge="1" parent="1" source="5YLZRb2mabN50mvJNGqJ-372" target="5YLZRb2mabN50mvJNGqJ-383">
          <mxGeometry relative="1" as="geometry">
            <Array as="points">
              <mxPoint x="70" y="650" />
              <mxPoint x="70" y="721" />
            </Array>
          </mxGeometry>
        </mxCell>
        <mxCell id="5YLZRb2mabN50mvJNGqJ-371" value="rdfs:subClassOf" style="text;html=1;align=center;verticalAlign=middle;resizable=0;points=[];labelBackgroundColor=#ffffff;fontColor=#000000;" vertex="1" connectable="0" parent="5YLZRb2mabN50mvJNGqJ-370">
          <mxGeometry x="0.4105" y="-10" relative="1" as="geometry">
            <mxPoint x="10" y="-12.2" as="offset" />
          </mxGeometry>
        </mxCell>
        <mxCell id="5YLZRb2mabN50mvJNGqJ-372" value="sbeo:Fire&lt;br&gt;Protection" style="ellipse;whiteSpace=wrap;html=1;aspect=fixed;fillColor=#dae8fc;strokeColor=#6c8ebf;shadow=0;" vertex="1" parent="1">
          <mxGeometry x="30" y="569.9300000000001" width="80" height="80" as="geometry" />
        </mxCell>
        <mxCell id="5YLZRb2mabN50mvJNGqJ-373" value="&lt;span style=&quot;white-space: normal&quot;&gt;sbeo:Temperature&lt;br&gt;Sensor&lt;br&gt;&lt;/span&gt;" style="ellipse;whiteSpace=wrap;html=1;aspect=fixed;fillColor=#dae8fc;strokeColor=#6c8ebf;shadow=0;" vertex="1" parent="1">
          <mxGeometry x="320" y="618.93" width="80" height="80" as="geometry" />
        </mxCell>
        <mxCell id="5YLZRb2mabN50mvJNGqJ-374" value="&lt;span style=&quot;white-space: normal&quot;&gt;sbeo:Smoke&lt;br&gt;Sensor&lt;/span&gt;" style="ellipse;whiteSpace=wrap;html=1;aspect=fixed;fillColor=#dae8fc;strokeColor=#6c8ebf;shadow=0;" vertex="1" parent="1">
          <mxGeometry x="221" y="618.93" width="80" height="80" as="geometry" />
        </mxCell>
        <mxCell id="5YLZRb2mabN50mvJNGqJ-375" value="&lt;span style=&quot;white-space: normal&quot;&gt;sbeo:Location&lt;br&gt;Sensor&lt;/span&gt;" style="ellipse;whiteSpace=wrap;html=1;aspect=fixed;fillColor=#dae8fc;strokeColor=#6c8ebf;shadow=0;" vertex="1" parent="1">
          <mxGeometry x="120" y="618.93" width="80" height="80" as="geometry" />
        </mxCell>
        <mxCell id="5YLZRb2mabN50mvJNGqJ-376" value="&lt;span style=&quot;white-space: normal&quot;&gt;sbeo:FireDoor&lt;/span&gt;" style="ellipse;whiteSpace=wrap;html=1;aspect=fixed;fillColor=#dae8fc;strokeColor=#6c8ebf;shadow=0;" vertex="1" parent="1">
          <mxGeometry x="-60.139999999999986" y="820.9999999999999" width="80" height="80" as="geometry" />
        </mxCell>
        <mxCell id="5YLZRb2mabN50mvJNGqJ-377" value="&lt;span style=&quot;white-space: normal&quot;&gt;sbeo:Fire&lt;br&gt;Extinguisher&lt;br&gt;&lt;/span&gt;" style="ellipse;whiteSpace=wrap;html=1;aspect=fixed;fillColor=#dae8fc;strokeColor=#6c8ebf;shadow=0;" vertex="1" parent="1">
          <mxGeometry x="-162" y="821" width="80" height="80" as="geometry" />
        </mxCell>
        <mxCell id="5YLZRb2mabN50mvJNGqJ-378" style="edgeStyle=orthogonalEdgeStyle;curved=1;comic=0;orthogonalLoop=1;jettySize=auto;html=1;shadow=0;startArrow=classic;startFill=1;endArrow=none;endFill=0;dashed=1;" edge="1" parent="1" source="5YLZRb2mabN50mvJNGqJ-380" target="5YLZRb2mabN50mvJNGqJ-377">
          <mxGeometry relative="1" as="geometry" />
        </mxCell>
        <mxCell id="5YLZRb2mabN50mvJNGqJ-379" value="rdfs:subClassOf" style="text;html=1;align=center;verticalAlign=middle;resizable=0;points=[];labelBackgroundColor=#ffffff;fontColor=#000000;" vertex="1" connectable="0" parent="5YLZRb2mabN50mvJNGqJ-378">
          <mxGeometry x="-0.3157" y="2" relative="1" as="geometry">
            <mxPoint x="-40.64" y="5.500000000000001" as="offset" />
          </mxGeometry>
        </mxCell>
        <mxCell id="5YLZRb2mabN50mvJNGqJ-380" value="&lt;span style=&quot;white-space: normal&quot;&gt;sbeo:Passive&lt;br&gt;FrieProtection&lt;br&gt;&lt;/span&gt;" style="ellipse;whiteSpace=wrap;html=1;aspect=fixed;fillColor=#dae8fc;strokeColor=#6c8ebf;shadow=0;" vertex="1" parent="1">
          <mxGeometry x="-100" y="664" width="80" height="80" as="geometry" />
        </mxCell>
        <mxCell id="5YLZRb2mabN50mvJNGqJ-381" style="edgeStyle=orthogonalEdgeStyle;curved=1;comic=0;orthogonalLoop=1;jettySize=auto;html=1;entryX=0.5;entryY=0;entryDx=0;entryDy=0;shadow=0;startArrow=classic;startFill=1;endArrow=none;endFill=0;dashed=1;" edge="1" parent="1" source="5YLZRb2mabN50mvJNGqJ-383" target="5YLZRb2mabN50mvJNGqJ-376">
          <mxGeometry relative="1" as="geometry" />
        </mxCell>
        <mxCell id="5YLZRb2mabN50mvJNGqJ-382" value="rdfs:subClassOf" style="text;html=1;align=center;verticalAlign=middle;resizable=0;points=[];labelBackgroundColor=#ffffff;fontColor=#000000;" vertex="1" connectable="0" parent="5YLZRb2mabN50mvJNGqJ-381">
          <mxGeometry x="-0.2176" y="-2" relative="1" as="geometry">
            <mxPoint x="2.759999999999998" y="32.21" as="offset" />
          </mxGeometry>
        </mxCell>
        <mxCell id="5YLZRb2mabN50mvJNGqJ-383" value="&lt;span style=&quot;white-space: normal&quot;&gt;sbeo:Active&lt;br&gt;FireProtection&lt;/span&gt;" style="ellipse;whiteSpace=wrap;html=1;aspect=fixed;fillColor=#dae8fc;strokeColor=#6c8ebf;shadow=0;" vertex="1" parent="1">
          <mxGeometry x="30" y="721" width="80" height="80" as="geometry" />
        </mxCell>
        <mxCell id="5YLZRb2mabN50mvJNGqJ-384" style="edgeStyle=orthogonalEdgeStyle;curved=1;comic=0;orthogonalLoop=1;jettySize=auto;html=1;entryX=1;entryY=0.5;entryDx=0;entryDy=0;shadow=0;startArrow=none;startFill=0;endArrow=classic;endFill=1;fontColor=#000000;exitX=0;exitY=0.5;exitDx=0;exitDy=0;" edge="1" parent="1" source="5YLZRb2mabN50mvJNGqJ-392" target="5YLZRb2mabN50mvJNGqJ-277">
          <mxGeometry relative="1" as="geometry">
            <Array as="points">
              <mxPoint x="890" y="274" />
              <mxPoint x="850" y="274" />
            </Array>
          </mxGeometry>
        </mxCell>
        <mxCell id="5YLZRb2mabN50mvJNGqJ-385" value="&lt;span style=&quot;background-color: rgb(102 , 255 , 255)&quot;&gt;sbeo:distanceOf&lt;/span&gt;" style="text;html=1;align=center;verticalAlign=middle;resizable=0;points=[];labelBackgroundColor=#ffffff;" vertex="1" connectable="0" parent="5YLZRb2mabN50mvJNGqJ-384">
          <mxGeometry x="0.0545" y="-2" relative="1" as="geometry">
            <mxPoint x="-47.99999999999999" y="-12.500000000000002" as="offset" />
          </mxGeometry>
        </mxCell>
        <mxCell id="5YLZRb2mabN50mvJNGqJ-386" style="edgeStyle=orthogonalEdgeStyle;curved=1;comic=0;orthogonalLoop=1;jettySize=auto;html=1;entryX=1;entryY=0.5;entryDx=0;entryDy=0;shadow=0;startArrow=none;startFill=0;endArrow=classic;endFill=1;fontColor=#000000;exitX=0.5;exitY=1;exitDx=0;exitDy=0;" edge="1" parent="1" source="5YLZRb2mabN50mvJNGqJ-392" target="5YLZRb2mabN50mvJNGqJ-327">
          <mxGeometry relative="1" as="geometry">
            <Array as="points">
              <mxPoint x="880" y="314" />
              <mxPoint x="880" y="586" />
              <mxPoint x="560" y="586" />
              <mxPoint x="560" y="274" />
            </Array>
          </mxGeometry>
        </mxCell>
        <mxCell id="5YLZRb2mabN50mvJNGqJ-387" value="&lt;span style=&quot;background-color: rgb(102 , 255 , 255)&quot;&gt;sbeo:distanceOf&lt;/span&gt;" style="text;html=1;align=center;verticalAlign=middle;resizable=0;points=[];labelBackgroundColor=#ffffff;" vertex="1" connectable="0" parent="5YLZRb2mabN50mvJNGqJ-386">
          <mxGeometry x="0.0525" y="-2" relative="1" as="geometry">
            <mxPoint x="59.83000000000001" y="1.9699999999999998" as="offset" />
          </mxGeometry>
        </mxCell>
        <mxCell id="5YLZRb2mabN50mvJNGqJ-388" style="edgeStyle=orthogonalEdgeStyle;curved=1;comic=0;orthogonalLoop=1;jettySize=auto;html=1;exitX=1;exitY=0.5;exitDx=0;exitDy=0;entryX=0;entryY=0.5;entryDx=0;entryDy=0;shadow=0;startArrow=none;startFill=0;endArrow=classic;endFill=1;fontColor=#000000;" edge="1" parent="1" source="5YLZRb2mabN50mvJNGqJ-392" target="5YLZRb2mabN50mvJNGqJ-439">
          <mxGeometry relative="1" as="geometry" />
        </mxCell>
        <mxCell id="5YLZRb2mabN50mvJNGqJ-389" value="&lt;span style=&quot;background-color: rgb(102 , 255 , 255)&quot;&gt;sbeo:distanceOf&lt;/span&gt;" style="text;html=1;align=center;verticalAlign=middle;resizable=0;points=[];labelBackgroundColor=#ffffff;" vertex="1" connectable="0" parent="5YLZRb2mabN50mvJNGqJ-388">
          <mxGeometry x="0.7483" y="1" relative="1" as="geometry">
            <mxPoint x="3.4999999999999947" y="-91" as="offset" />
          </mxGeometry>
        </mxCell>
        <mxCell id="5YLZRb2mabN50mvJNGqJ-390" style="edgeStyle=orthogonalEdgeStyle;curved=1;comic=0;orthogonalLoop=1;jettySize=auto;html=1;entryX=0;entryY=0.5;entryDx=0;entryDy=0;shadow=0;startArrow=none;startFill=0;endArrow=classic;endFill=1;fontColor=#000000;exitX=0.5;exitY=1;exitDx=0;exitDy=0;" edge="1" parent="1" source="5YLZRb2mabN50mvJNGqJ-392" target="5YLZRb2mabN50mvJNGqJ-436">
          <mxGeometry relative="1" as="geometry">
            <Array as="points">
              <mxPoint x="910" y="314" />
              <mxPoint x="910" y="521" />
            </Array>
          </mxGeometry>
        </mxCell>
        <mxCell id="5YLZRb2mabN50mvJNGqJ-391" value="&lt;span style=&quot;background-color: rgb(102 , 255 , 255)&quot;&gt;sbeo:distanceOf&lt;/span&gt;" style="text;html=1;align=center;verticalAlign=middle;resizable=0;points=[];labelBackgroundColor=#ffffff;" vertex="1" connectable="0" parent="5YLZRb2mabN50mvJNGqJ-390">
          <mxGeometry x="-0.6436" y="12" relative="1" as="geometry">
            <mxPoint x="16.99" y="129.4" as="offset" />
          </mxGeometry>
        </mxCell>
        <mxCell id="5YLZRb2mabN50mvJNGqJ-392" value="&lt;span style=&quot;white-space: normal&quot;&gt;sbeo:Distance&lt;/span&gt;" style="ellipse;whiteSpace=wrap;html=1;aspect=fixed;fillColor=#dae8fc;strokeColor=#6c8ebf;shadow=0;" vertex="1" parent="1">
          <mxGeometry x="832" y="233.5" width="80" height="80" as="geometry" />
        </mxCell>
        <mxCell id="5YLZRb2mabN50mvJNGqJ-393" value="&lt;span style=&quot;white-space: normal&quot;&gt;sbeo:Terrorist&lt;br&gt;Attack&lt;/span&gt;" style="ellipse;whiteSpace=wrap;html=1;aspect=fixed;fillColor=#dae8fc;strokeColor=#6c8ebf;shadow=0;" vertex="1" parent="1">
          <mxGeometry x="-280" y="326" width="80" height="80" as="geometry" />
        </mxCell>
        <mxCell id="5YLZRb2mabN50mvJNGqJ-394" value="&lt;span style=&quot;white-space: normal&quot;&gt;sbeo:Stempeding&lt;/span&gt;" style="ellipse;whiteSpace=wrap;html=1;aspect=fixed;fillColor=#dae8fc;strokeColor=#6c8ebf;shadow=0;" vertex="1" parent="1">
          <mxGeometry x="-120" y="556" width="80" height="80" as="geometry" />
        </mxCell>
        <mxCell id="5YLZRb2mabN50mvJNGqJ-395" style="edgeStyle=orthogonalEdgeStyle;curved=1;comic=0;orthogonalLoop=1;jettySize=auto;html=1;entryX=0.5;entryY=0;entryDx=0;entryDy=0;shadow=0;startArrow=classic;startFill=1;endArrow=none;endFill=0;dashed=1;" edge="1" parent="1" source="5YLZRb2mabN50mvJNGqJ-397" target="5YLZRb2mabN50mvJNGqJ-394">
          <mxGeometry relative="1" as="geometry" />
        </mxCell>
        <mxCell id="5YLZRb2mabN50mvJNGqJ-396" value="rdfs:subClassOf" style="text;html=1;align=center;verticalAlign=middle;resizable=0;points=[];labelBackgroundColor=#ffffff;fontColor=#000000;" vertex="1" connectable="0" parent="5YLZRb2mabN50mvJNGqJ-395">
          <mxGeometry x="-0.4974" y="-6" relative="1" as="geometry">
            <mxPoint x="-48.54" y="12.5" as="offset" />
          </mxGeometry>
        </mxCell>
        <mxCell id="5YLZRb2mabN50mvJNGqJ-397" value="&lt;span style=&quot;white-space: normal&quot;&gt;sbeo:Panic&lt;/span&gt;" style="ellipse;whiteSpace=wrap;html=1;aspect=fixed;fillColor=#dae8fc;strokeColor=#6c8ebf;shadow=0;" vertex="1" parent="1">
          <mxGeometry x="-60.14" y="423" width="80" height="80" as="geometry" />
        </mxCell>
        <mxCell id="5YLZRb2mabN50mvJNGqJ-398" value="sbeo:Fire" style="ellipse;whiteSpace=wrap;html=1;aspect=fixed;fillColor=#dae8fc;strokeColor=#6c8ebf;shadow=0;" vertex="1" parent="1">
          <mxGeometry x="-150.14" y="431" width="80" height="80" as="geometry" />
        </mxCell>
        <mxCell id="5YLZRb2mabN50mvJNGqJ-399" value="&lt;span style=&quot;white-space: normal&quot;&gt;sbeo:Congestion&lt;/span&gt;" style="ellipse;whiteSpace=wrap;html=1;aspect=fixed;fillColor=#dae8fc;strokeColor=#6c8ebf;shadow=0;" vertex="1" parent="1">
          <mxGeometry x="-220" y="381" width="80" height="80" as="geometry" />
        </mxCell>
        <mxCell id="5YLZRb2mabN50mvJNGqJ-400" value="&lt;span style=&quot;white-space: normal&quot;&gt;sbeo:Chemcial&lt;br&gt;Spill&lt;/span&gt;" style="ellipse;whiteSpace=wrap;html=1;aspect=fixed;fillColor=#dae8fc;strokeColor=#6c8ebf;shadow=0;" vertex="1" parent="1">
          <mxGeometry x="-330" y="251" width="80" height="80" as="geometry" />
        </mxCell>
        <mxCell id="5YLZRb2mabN50mvJNGqJ-401" value="&lt;span style=&quot;white-space: normal&quot;&gt;sbeo:Dependent&lt;/span&gt;" style="ellipse;whiteSpace=wrap;html=1;aspect=fixed;fillColor=#dae8fc;strokeColor=#6c8ebf;shadow=0;" vertex="1" parent="1">
          <mxGeometry x="-841" y="682.07" width="80" height="80" as="geometry" />
        </mxCell>
        <mxCell id="5YLZRb2mabN50mvJNGqJ-402" value="sbeo:Visual" style="ellipse;whiteSpace=wrap;html=1;aspect=fixed;fillColor=#dae8fc;strokeColor=#6c8ebf;shadow=0;" vertex="1" parent="1">
          <mxGeometry x="-941" y="650" width="80" height="80" as="geometry" />
        </mxCell>
        <mxCell id="5YLZRb2mabN50mvJNGqJ-403" value="&lt;span style=&quot;white-space: normal&quot;&gt;sbeo:Hearing&lt;/span&gt;" style="ellipse;whiteSpace=wrap;html=1;aspect=fixed;fillColor=#dae8fc;strokeColor=#6c8ebf;shadow=0;" vertex="1" parent="1">
          <mxGeometry x="-941" y="754" width="80" height="80" as="geometry" />
        </mxCell>
        <mxCell id="5YLZRb2mabN50mvJNGqJ-404" value="&lt;span style=&quot;white-space: normal&quot;&gt;sbeo:Non-Motorised&lt;/span&gt;" style="ellipse;whiteSpace=wrap;html=1;aspect=fixed;fillColor=#dae8fc;strokeColor=#6c8ebf;shadow=0;" vertex="1" parent="1">
          <mxGeometry x="-1089" y="658" width="80" height="80" as="geometry" />
        </mxCell>
        <mxCell id="5YLZRb2mabN50mvJNGqJ-405" value="&lt;span style=&quot;white-space: normal&quot;&gt;sbeo:Motorised&lt;/span&gt;" style="ellipse;whiteSpace=wrap;html=1;aspect=fixed;fillColor=#dae8fc;strokeColor=#6c8ebf;shadow=0;" vertex="1" parent="1">
          <mxGeometry x="-1176" y="658" width="80" height="80" as="geometry" />
        </mxCell>
        <mxCell id="5YLZRb2mabN50mvJNGqJ-406" style="edgeStyle=orthogonalEdgeStyle;curved=1;comic=0;orthogonalLoop=1;jettySize=auto;html=1;entryX=0.5;entryY=0;entryDx=0;entryDy=0;shadow=0;startArrow=classic;startFill=1;endArrow=none;endFill=0;dashed=1;exitX=0.5;exitY=1;exitDx=0;exitDy=0;" edge="1" parent="1" source="5YLZRb2mabN50mvJNGqJ-411" target="5YLZRb2mabN50mvJNGqJ-405">
          <mxGeometry relative="1" as="geometry">
            <Array as="points">
              <mxPoint x="-1049" y="630" />
              <mxPoint x="-1136" y="630" />
            </Array>
          </mxGeometry>
        </mxCell>
        <mxCell id="5YLZRb2mabN50mvJNGqJ-407" value="rdfs:subClassOf" style="text;html=1;align=center;verticalAlign=middle;resizable=0;points=[];labelBackgroundColor=#ffffff;fontColor=#000000;" vertex="1" connectable="0" parent="5YLZRb2mabN50mvJNGqJ-406">
          <mxGeometry x="0.5818" y="10" relative="1" as="geometry">
            <mxPoint x="-11.030000000000001" y="13.03" as="offset" />
          </mxGeometry>
        </mxCell>
        <mxCell id="5YLZRb2mabN50mvJNGqJ-408" style="edgeStyle=orthogonalEdgeStyle;curved=1;comic=0;orthogonalLoop=1;jettySize=auto;html=1;entryX=0.5;entryY=0;entryDx=0;entryDy=0;shadow=0;startArrow=classic;startFill=1;endArrow=none;endFill=0;dashed=1;exitX=0.5;exitY=1;exitDx=0;exitDy=0;" edge="1" parent="1" source="5YLZRb2mabN50mvJNGqJ-411" target="5YLZRb2mabN50mvJNGqJ-404">
          <mxGeometry relative="1" as="geometry" />
        </mxCell>
        <mxCell id="5YLZRb2mabN50mvJNGqJ-409" value="rdfs:subClassOf" style="text;html=1;align=center;verticalAlign=middle;resizable=0;points=[];labelBackgroundColor=#ffffff;fontColor=#000000;" vertex="1" connectable="0" parent="5YLZRb2mabN50mvJNGqJ-408">
          <mxGeometry x="0.5667" y="-9" relative="1" as="geometry">
            <mxPoint x="11" y="-4.779999999999999" as="offset" />
          </mxGeometry>
        </mxCell>
        <mxCell id="5YLZRb2mabN50mvJNGqJ-410" value="sbeo:Low&lt;br&gt;Stamina" style="ellipse;whiteSpace=wrap;html=1;aspect=fixed;fillColor=#dae8fc;strokeColor=#6c8ebf;shadow=0;" vertex="1" parent="1">
          <mxGeometry x="-1176" y="530" width="80" height="80" as="geometry" />
        </mxCell>
        <mxCell id="5YLZRb2mabN50mvJNGqJ-411" value="sbeo:Wheel&lt;br&gt;Chair" style="ellipse;whiteSpace=wrap;html=1;aspect=fixed;fillColor=#dae8fc;strokeColor=#6c8ebf;shadow=0;" vertex="1" parent="1">
          <mxGeometry x="-1089" y="530" width="80" height="80" as="geometry" />
        </mxCell>
        <mxCell id="5YLZRb2mabN50mvJNGqJ-412" style="edgeStyle=orthogonalEdgeStyle;curved=1;comic=0;orthogonalLoop=1;jettySize=auto;html=1;shadow=0;startArrow=classic;startFill=1;endArrow=none;endFill=0;dashed=1;" edge="1" parent="1" source="5YLZRb2mabN50mvJNGqJ-416" target="5YLZRb2mabN50mvJNGqJ-402">
          <mxGeometry relative="1" as="geometry" />
        </mxCell>
        <mxCell id="5YLZRb2mabN50mvJNGqJ-413" value="rdfs:subClassOf" style="text;html=1;align=center;verticalAlign=middle;resizable=0;points=[];labelBackgroundColor=#ffffff;fontColor=#000000;" vertex="1" connectable="0" parent="5YLZRb2mabN50mvJNGqJ-412">
          <mxGeometry x="-0.4926" y="-10" relative="1" as="geometry">
            <mxPoint x="9" y="15" as="offset" />
          </mxGeometry>
        </mxCell>
        <mxCell id="5YLZRb2mabN50mvJNGqJ-414" style="edgeStyle=orthogonalEdgeStyle;curved=1;comic=0;orthogonalLoop=1;jettySize=auto;html=1;entryX=0;entryY=0.5;entryDx=0;entryDy=0;shadow=0;startArrow=classic;startFill=1;endArrow=none;endFill=0;dashed=1;" edge="1" parent="1" source="5YLZRb2mabN50mvJNGqJ-416" target="5YLZRb2mabN50mvJNGqJ-403">
          <mxGeometry relative="1" as="geometry">
            <Array as="points">
              <mxPoint x="-980" y="570" />
              <mxPoint x="-980" y="794" />
            </Array>
          </mxGeometry>
        </mxCell>
        <mxCell id="5YLZRb2mabN50mvJNGqJ-415" value="rdfs:subClassOf" style="text;html=1;align=center;verticalAlign=middle;resizable=0;points=[];labelBackgroundColor=#ffffff;fontColor=#000000;" vertex="1" connectable="0" parent="5YLZRb2mabN50mvJNGqJ-414">
          <mxGeometry x="0.39" y="-3" relative="1" as="geometry">
            <mxPoint x="5.970000000000001" y="3.2600000000000016" as="offset" />
          </mxGeometry>
        </mxCell>
        <mxCell id="5YLZRb2mabN50mvJNGqJ-416" value="&lt;span style=&quot;white-space: normal&quot;&gt;sbeo:Sensory&lt;br&gt;Impairment&lt;/span&gt;" style="ellipse;whiteSpace=wrap;html=1;aspect=fixed;fillColor=#dae8fc;strokeColor=#6c8ebf;shadow=0;" vertex="1" parent="1">
          <mxGeometry x="-941" y="530" width="80" height="80" as="geometry" />
        </mxCell>
        <mxCell id="5YLZRb2mabN50mvJNGqJ-417" style="edgeStyle=orthogonalEdgeStyle;curved=1;comic=0;orthogonalLoop=1;jettySize=auto;html=1;entryX=1;entryY=0.5;entryDx=0;entryDy=0;shadow=0;startArrow=classic;startFill=1;endArrow=none;endFill=0;dashed=1;" edge="1" parent="1" source="5YLZRb2mabN50mvJNGqJ-421" target="5YLZRb2mabN50mvJNGqJ-411">
          <mxGeometry relative="1" as="geometry">
            <Array as="points">
              <mxPoint x="-1061" y="516" />
              <mxPoint x="-980" y="516" />
              <mxPoint x="-980" y="570" />
            </Array>
          </mxGeometry>
        </mxCell>
        <mxCell id="5YLZRb2mabN50mvJNGqJ-418" value="rdfs:subClassOf" style="text;html=1;align=center;verticalAlign=middle;resizable=0;points=[];labelBackgroundColor=#ffffff;fontColor=#000000;" vertex="1" connectable="0" parent="5YLZRb2mabN50mvJNGqJ-417">
          <mxGeometry x="0.3121" y="-1" relative="1" as="geometry">
            <mxPoint x="-40.03" y="-20.54" as="offset" />
          </mxGeometry>
        </mxCell>
        <mxCell id="5YLZRb2mabN50mvJNGqJ-419" style="edgeStyle=orthogonalEdgeStyle;curved=1;comic=0;orthogonalLoop=1;jettySize=auto;html=1;entryX=0.5;entryY=0;entryDx=0;entryDy=0;shadow=0;startArrow=classic;startFill=1;endArrow=none;endFill=0;dashed=1;exitX=0;exitY=0.5;exitDx=0;exitDy=0;" edge="1" parent="1" source="5YLZRb2mabN50mvJNGqJ-421" target="5YLZRb2mabN50mvJNGqJ-410">
          <mxGeometry relative="1" as="geometry" />
        </mxCell>
        <mxCell id="5YLZRb2mabN50mvJNGqJ-420" value="rdfs:subClassOf" style="text;html=1;align=center;verticalAlign=middle;resizable=0;points=[];labelBackgroundColor=#ffffff;fontColor=#000000;" vertex="1" connectable="0" parent="5YLZRb2mabN50mvJNGqJ-419">
          <mxGeometry x="0.2487" y="-1" relative="1" as="geometry">
            <mxPoint as="offset" />
          </mxGeometry>
        </mxCell>
        <mxCell id="5YLZRb2mabN50mvJNGqJ-421" value="&lt;span style=&quot;white-space: normal&quot;&gt;sbeo:Physical&lt;br&gt;Impairment&lt;br&gt;&lt;/span&gt;" style="ellipse;whiteSpace=wrap;html=1;aspect=fixed;fillColor=#dae8fc;strokeColor=#6c8ebf;shadow=0;" vertex="1" parent="1">
          <mxGeometry x="-1101" y="416" width="80" height="80" as="geometry" />
        </mxCell>
        <mxCell id="5YLZRb2mabN50mvJNGqJ-422" value="sbeo:Visitor" style="ellipse;whiteSpace=wrap;html=1;aspect=fixed;fillColor=#dae8fc;strokeColor=#6c8ebf;shadow=0;" vertex="1" parent="1">
          <mxGeometry x="-841" y="592.93" width="80" height="80" as="geometry" />
        </mxCell>
        <mxCell id="5YLZRb2mabN50mvJNGqJ-423" value="&lt;span style=&quot;white-space: normal&quot;&gt;sbeo:Respnsible&lt;/span&gt;" style="ellipse;whiteSpace=wrap;html=1;aspect=fixed;fillColor=#dae8fc;strokeColor=#6c8ebf;shadow=0;" vertex="1" parent="1">
          <mxGeometry x="-841" y="505" width="80" height="80" as="geometry" />
        </mxCell>
        <mxCell id="5YLZRb2mabN50mvJNGqJ-424" value="&lt;span style=&quot;white-space: normal&quot;&gt;sbeo:Normal&lt;/span&gt;" style="ellipse;whiteSpace=wrap;html=1;aspect=fixed;fillColor=#dae8fc;strokeColor=#6c8ebf;shadow=0;" vertex="1" parent="1">
          <mxGeometry x="-841" y="417" width="80" height="80" as="geometry" />
        </mxCell>
        <mxCell id="5YLZRb2mabN50mvJNGqJ-425" value="&lt;span style=&quot;white-space: normal&quot;&gt;sbeo:Injured&lt;/span&gt;" style="ellipse;whiteSpace=wrap;html=1;aspect=fixed;fillColor=#dae8fc;strokeColor=#6c8ebf;shadow=0;" vertex="1" parent="1">
          <mxGeometry x="-841" y="773" width="80" height="80" as="geometry" />
        </mxCell>
        <mxCell id="5YLZRb2mabN50mvJNGqJ-426" style="edgeStyle=orthogonalEdgeStyle;curved=1;comic=0;orthogonalLoop=1;jettySize=auto;html=1;entryX=1;entryY=0.5;entryDx=0;entryDy=0;shadow=0;startArrow=classic;startFill=1;endArrow=none;endFill=0;dashed=1;" edge="1" parent="1" source="5YLZRb2mabN50mvJNGqJ-430" target="5YLZRb2mabN50mvJNGqJ-421">
          <mxGeometry relative="1" as="geometry">
            <Array as="points">
              <mxPoint x="-971" y="456" />
              <mxPoint x="-971" y="456" />
            </Array>
          </mxGeometry>
        </mxCell>
        <mxCell id="5YLZRb2mabN50mvJNGqJ-427" value="rdfs:subClassOf" style="text;html=1;align=center;verticalAlign=middle;resizable=0;points=[];labelBackgroundColor=#ffffff;fontColor=#000000;" vertex="1" connectable="0" parent="5YLZRb2mabN50mvJNGqJ-426">
          <mxGeometry x="-0.2167" y="7" relative="1" as="geometry">
            <mxPoint x="-9" y="-27" as="offset" />
          </mxGeometry>
        </mxCell>
        <mxCell id="5YLZRb2mabN50mvJNGqJ-428" style="edgeStyle=orthogonalEdgeStyle;curved=1;comic=0;orthogonalLoop=1;jettySize=auto;html=1;exitX=0.5;exitY=1;exitDx=0;exitDy=0;shadow=0;startArrow=classic;startFill=1;endArrow=none;endFill=0;dashed=1;" edge="1" parent="1" source="5YLZRb2mabN50mvJNGqJ-430" target="5YLZRb2mabN50mvJNGqJ-416">
          <mxGeometry relative="1" as="geometry" />
        </mxCell>
        <mxCell id="5YLZRb2mabN50mvJNGqJ-429" value="rdfs:subClassOf" style="text;html=1;align=center;verticalAlign=middle;resizable=0;points=[];labelBackgroundColor=#ffffff;fontColor=#000000;" vertex="1" connectable="0" parent="5YLZRb2mabN50mvJNGqJ-428">
          <mxGeometry x="0.3107" y="-1" relative="1" as="geometry">
            <mxPoint x="1" y="5" as="offset" />
          </mxGeometry>
        </mxCell>
        <mxCell id="5YLZRb2mabN50mvJNGqJ-430" value="&lt;span style=&quot;white-space: normal&quot;&gt;sbeo:Impaired&lt;/span&gt;" style="ellipse;whiteSpace=wrap;html=1;aspect=fixed;fillColor=#dae8fc;strokeColor=#6c8ebf;shadow=0;" vertex="1" parent="1">
          <mxGeometry x="-941" y="416" width="80" height="80" as="geometry" />
        </mxCell>
        <mxCell id="5YLZRb2mabN50mvJNGqJ-431" value="&lt;span style=&quot;white-space: normal&quot;&gt;sbeo:Family&lt;/span&gt;" style="ellipse;whiteSpace=wrap;html=1;aspect=fixed;fillColor=#dae8fc;strokeColor=#6c8ebf;shadow=0;" vertex="1" parent="1">
          <mxGeometry x="-841" y="860" width="80" height="80" as="geometry" />
        </mxCell>
        <mxCell id="5YLZRb2mabN50mvJNGqJ-432" value="&lt;span style=&quot;white-space: normal&quot;&gt;sbeo:UnAvailable&lt;/span&gt;" style="ellipse;whiteSpace=wrap;html=1;aspect=fixed;fillColor=#dae8fc;strokeColor=#6c8ebf;shadow=0;" vertex="1" parent="1">
          <mxGeometry x="1151" y="381" width="80" height="80" as="geometry" />
        </mxCell>
        <mxCell id="5YLZRb2mabN50mvJNGqJ-433" value="&lt;span style=&quot;white-space: normal&quot;&gt;sbeo:Emergency&lt;br&gt;Exit&lt;/span&gt;" style="ellipse;whiteSpace=wrap;html=1;aspect=fixed;fillColor=#dae8fc;strokeColor=#6c8ebf;shadow=0;" vertex="1" parent="1">
          <mxGeometry x="1151" y="481" width="80" height="80" as="geometry" />
        </mxCell>
        <mxCell id="5YLZRb2mabN50mvJNGqJ-434" style="edgeStyle=orthogonalEdgeStyle;curved=1;comic=0;orthogonalLoop=1;jettySize=auto;html=1;entryX=0;entryY=0.5;entryDx=0;entryDy=0;shadow=0;startArrow=classic;startFill=1;endArrow=none;endFill=0;dashed=1;" edge="1" parent="1" source="5YLZRb2mabN50mvJNGqJ-436" target="5YLZRb2mabN50mvJNGqJ-433">
          <mxGeometry relative="1" as="geometry" />
        </mxCell>
        <mxCell id="5YLZRb2mabN50mvJNGqJ-435" value="rdfs:subClassOf" style="text;html=1;align=center;verticalAlign=middle;resizable=0;points=[];labelBackgroundColor=#ffffff;fontColor=#000000;" vertex="1" connectable="0" parent="5YLZRb2mabN50mvJNGqJ-434">
          <mxGeometry x="-0.1088" y="5" relative="1" as="geometry">
            <mxPoint y="-5" as="offset" />
          </mxGeometry>
        </mxCell>
        <mxCell id="5YLZRb2mabN50mvJNGqJ-436" value="&lt;span style=&quot;white-space: normal&quot;&gt;sbeo:Exit&lt;/span&gt;" style="ellipse;whiteSpace=wrap;html=1;aspect=fixed;fillColor=#dae8fc;strokeColor=#6c8ebf;shadow=0;" vertex="1" parent="1">
          <mxGeometry x="961" y="481" width="80" height="80" as="geometry" />
        </mxCell>
        <mxCell id="5YLZRb2mabN50mvJNGqJ-437" style="edgeStyle=orthogonalEdgeStyle;curved=1;comic=0;orthogonalLoop=1;jettySize=auto;html=1;exitX=0.5;exitY=0;exitDx=0;exitDy=0;entryX=0.5;entryY=1;entryDx=0;entryDy=0;shadow=0;startArrow=none;startFill=0;endArrow=classic;endFill=1;fontColor=#000000;dashed=1;" edge="1" parent="1" source="5YLZRb2mabN50mvJNGqJ-439" target="5YLZRb2mabN50mvJNGqJ-322">
          <mxGeometry relative="1" as="geometry" />
        </mxCell>
        <mxCell id="5YLZRb2mabN50mvJNGqJ-438" value="rdfs:subClassOf" style="text;html=1;align=center;verticalAlign=middle;resizable=0;points=[];labelBackgroundColor=#ffffff;" vertex="1" connectable="0" parent="5YLZRb2mabN50mvJNGqJ-437">
          <mxGeometry x="0.1682" relative="1" as="geometry">
            <mxPoint y="7" as="offset" />
          </mxGeometry>
        </mxCell>
        <mxCell id="5YLZRb2mabN50mvJNGqJ-439" value="&lt;span style=&quot;white-space: normal&quot;&gt;sbeo:Entrance&lt;/span&gt;" style="ellipse;whiteSpace=wrap;html=1;aspect=fixed;fillColor=#dae8fc;strokeColor=#6c8ebf;shadow=0;" vertex="1" parent="1">
          <mxGeometry x="961" y="376" width="80" height="80" as="geometry" />
        </mxCell>
        <mxCell id="5YLZRb2mabN50mvJNGqJ-440" value="&lt;span style=&quot;white-space: normal&quot;&gt;sbeo:Waiting&lt;br&gt;Zone&lt;/span&gt;" style="ellipse;whiteSpace=wrap;html=1;aspect=fixed;fillColor=#dae8fc;strokeColor=#6c8ebf;shadow=0;" vertex="1" parent="1">
          <mxGeometry x="1241" y="481" width="80" height="80" as="geometry" />
        </mxCell>
        <mxCell id="5YLZRb2mabN50mvJNGqJ-441" value="&lt;span style=&quot;white-space: normal&quot;&gt;sbeo:Assembly&lt;br&gt;Point&lt;br&gt;&lt;/span&gt;" style="ellipse;whiteSpace=wrap;html=1;aspect=fixed;fillColor=#dae8fc;strokeColor=#6c8ebf;shadow=0;" vertex="1" parent="1">
          <mxGeometry x="1340" y="481" width="80" height="80" as="geometry" />
        </mxCell>
        <mxCell id="5YLZRb2mabN50mvJNGqJ-442" style="edgeStyle=orthogonalEdgeStyle;curved=1;comic=0;orthogonalLoop=1;jettySize=auto;html=1;entryX=0.5;entryY=0;entryDx=0;entryDy=0;shadow=0;startArrow=classic;startFill=1;endArrow=none;endFill=0;dashed=1;" edge="1" parent="1" source="5YLZRb2mabN50mvJNGqJ-450" target="5YLZRb2mabN50mvJNGqJ-441">
          <mxGeometry relative="1" as="geometry" />
        </mxCell>
        <mxCell id="5YLZRb2mabN50mvJNGqJ-443" value="rdfs:subClassOf" style="text;html=1;align=center;verticalAlign=middle;resizable=0;points=[];labelBackgroundColor=#ffffff;fontColor=#000000;" vertex="1" connectable="0" parent="5YLZRb2mabN50mvJNGqJ-442">
          <mxGeometry x="-0.2818" y="2" relative="1" as="geometry">
            <mxPoint x="-1.9999999999999964" y="88" as="offset" />
          </mxGeometry>
        </mxCell>
        <mxCell id="5YLZRb2mabN50mvJNGqJ-444" style="edgeStyle=orthogonalEdgeStyle;curved=1;comic=0;orthogonalLoop=1;jettySize=auto;html=1;shadow=0;startArrow=classic;startFill=1;endArrow=none;endFill=0;dashed=1;" edge="1" parent="1" source="5YLZRb2mabN50mvJNGqJ-450" target="5YLZRb2mabN50mvJNGqJ-440">
          <mxGeometry relative="1" as="geometry" />
        </mxCell>
        <mxCell id="5YLZRb2mabN50mvJNGqJ-445" value="rdfs:subClassOf" style="text;html=1;align=center;verticalAlign=middle;resizable=0;points=[];labelBackgroundColor=#ffffff;fontColor=#000000;" vertex="1" connectable="0" parent="5YLZRb2mabN50mvJNGqJ-444">
          <mxGeometry x="0.28" y="-3" relative="1" as="geometry">
            <mxPoint x="3" y="-2" as="offset" />
          </mxGeometry>
        </mxCell>
        <mxCell id="5YLZRb2mabN50mvJNGqJ-446" style="edgeStyle=orthogonalEdgeStyle;curved=1;comic=0;orthogonalLoop=1;jettySize=auto;html=1;shadow=0;startArrow=none;startFill=0;endArrow=classic;endFill=1;fontColor=#000000;exitX=1;exitY=0.5;exitDx=0;exitDy=0;entryX=1;entryY=0.5;entryDx=0;entryDy=0;" edge="1" parent="1" source="5YLZRb2mabN50mvJNGqJ-453" target="5YLZRb2mabN50mvJNGqJ-454">
          <mxGeometry relative="1" as="geometry">
            <Array as="points">
              <mxPoint x="1330" y="273" />
              <mxPoint x="1330" y="166" />
            </Array>
          </mxGeometry>
        </mxCell>
        <mxCell id="5YLZRb2mabN50mvJNGqJ-447" value="&lt;span style=&quot;background-color: rgb(102 , 255 , 102)&quot;&gt;sbeo:accomodation&lt;br&gt;Capacity&lt;/span&gt;" style="text;html=1;align=center;verticalAlign=middle;resizable=0;points=[];labelBackgroundColor=#ffffff;" vertex="1" connectable="0" parent="5YLZRb2mabN50mvJNGqJ-446">
          <mxGeometry x="-0.341" y="-3" relative="1" as="geometry">
            <mxPoint x="1.7800000000000011" y="-1.5900000000000034" as="offset" />
          </mxGeometry>
        </mxCell>
        <mxCell id="5YLZRb2mabN50mvJNGqJ-448" style="edgeStyle=orthogonalEdgeStyle;curved=1;comic=0;orthogonalLoop=1;jettySize=auto;html=1;exitX=1;exitY=0.5;exitDx=0;exitDy=0;entryX=1;entryY=0.5;entryDx=0;entryDy=0;shadow=0;startArrow=none;startFill=0;endArrow=classic;endFill=1;fontColor=#000000;" edge="1" parent="1" source="5YLZRb2mabN50mvJNGqJ-453" target="5YLZRb2mabN50mvJNGqJ-454">
          <mxGeometry relative="1" as="geometry">
            <Array as="points">
              <mxPoint x="1270" y="273" />
              <mxPoint x="1270" y="166" />
            </Array>
            <mxPoint x="1453.5" y="181.00000000000006" as="targetPoint" />
          </mxGeometry>
        </mxCell>
        <mxCell id="5YLZRb2mabN50mvJNGqJ-449" value="&lt;span style=&quot;background-color: rgb(102 , 255 , 102)&quot;&gt;sbeo:current&lt;/span&gt;&lt;br&gt;&lt;span style=&quot;background-color: rgb(102 , 255 , 102)&quot;&gt;Occupancy&lt;/span&gt;" style="text;html=1;align=center;verticalAlign=middle;resizable=0;points=[];labelBackgroundColor=#ffffff;" vertex="1" connectable="0" parent="5YLZRb2mabN50mvJNGqJ-448">
          <mxGeometry x="0.3235" y="-1" relative="1" as="geometry">
            <mxPoint x="13.600000000000001" y="44" as="offset" />
          </mxGeometry>
        </mxCell>
        <mxCell id="5YLZRb2mabN50mvJNGqJ-450" value="sbeo:SafeZone" style="ellipse;whiteSpace=wrap;html=1;aspect=fixed;fillColor=#dae8fc;strokeColor=#6c8ebf;shadow=0;" vertex="1" parent="1">
          <mxGeometry x="1240" y="309" width="80" height="80" as="geometry" />
        </mxCell>
        <mxCell id="5YLZRb2mabN50mvJNGqJ-451" style="edgeStyle=orthogonalEdgeStyle;curved=1;comic=0;orthogonalLoop=1;jettySize=auto;html=1;entryX=0;entryY=0.5;entryDx=0;entryDy=0;shadow=0;startArrow=classic;startFill=1;endArrow=none;endFill=0;dashed=1;exitX=0.5;exitY=1;exitDx=0;exitDy=0;" edge="1" parent="1" source="5YLZRb2mabN50mvJNGqJ-453" target="5YLZRb2mabN50mvJNGqJ-450">
          <mxGeometry relative="1" as="geometry" />
        </mxCell>
        <mxCell id="5YLZRb2mabN50mvJNGqJ-452" value="rdfs:subClassOf" style="text;html=1;align=center;verticalAlign=middle;resizable=0;points=[];labelBackgroundColor=#ffffff;fontColor=#000000;" vertex="1" connectable="0" parent="5YLZRb2mabN50mvJNGqJ-451">
          <mxGeometry x="0.2266" y="4" relative="1" as="geometry">
            <mxPoint x="-17.22" y="-6.02" as="offset" />
          </mxGeometry>
        </mxCell>
        <mxCell id="5YLZRb2mabN50mvJNGqJ-453" value="sbeo:Available" style="ellipse;whiteSpace=wrap;html=1;aspect=fixed;fillColor=#dae8fc;strokeColor=#6c8ebf;shadow=0;" vertex="1" parent="1">
          <mxGeometry x="1151" y="233.5" width="80" height="80" as="geometry" />
        </mxCell>
        <mxCell id="5YLZRb2mabN50mvJNGqJ-454" value="xsd:integer" style="rounded=0;whiteSpace=wrap;html=1;fillColor=#ffff88;strokeColor=#36393d;" vertex="1" parent="1">
          <mxGeometry x="1073" y="156" width="78" height="20" as="geometry" />
        </mxCell>
        <mxCell id="5YLZRb2mabN50mvJNGqJ-455" value="xsd:long" style="rounded=0;whiteSpace=wrap;html=1;fillColor=#ffff88;strokeColor=#36393d;" vertex="1" parent="1">
          <mxGeometry x="250" y="381" width="78" height="20" as="geometry" />
        </mxCell>
        <mxCell id="5YLZRb2mabN50mvJNGqJ-456" value="xsd:long" style="rounded=0;whiteSpace=wrap;html=1;fillColor=#ffff88;strokeColor=#36393d;" vertex="1" parent="1">
          <mxGeometry x="-240" y="231" width="78" height="20" as="geometry" />
        </mxCell>
        <mxCell id="5YLZRb2mabN50mvJNGqJ-457" value="xsd:integer" style="rounded=0;whiteSpace=wrap;html=1;fillColor=#ffff88;strokeColor=#36393d;" vertex="1" parent="1">
          <mxGeometry x="-697.97" y="289" width="78" height="20" as="geometry" />
        </mxCell>
        <mxCell id="5YLZRb2mabN50mvJNGqJ-458" style="edgeStyle=orthogonalEdgeStyle;curved=1;comic=0;orthogonalLoop=1;jettySize=auto;html=1;exitX=0.5;exitY=0;exitDx=0;exitDy=0;entryX=1;entryY=0;entryDx=0;entryDy=0;shadow=0;startArrow=none;startFill=0;endArrow=classic;endFill=1;fontColor=#000000;" edge="1" parent="1" source="5YLZRb2mabN50mvJNGqJ-293" target="5YLZRb2mabN50mvJNGqJ-293">
          <mxGeometry relative="1" as="geometry">
            <Array as="points">
              <mxPoint x="-355" y="365" />
              <mxPoint x="-327" y="365" />
            </Array>
          </mxGeometry>
        </mxCell>
        <mxCell id="5YLZRb2mabN50mvJNGqJ-459" value="&lt;span style=&quot;background-color: rgb(102 , 255 , 255)&quot;&gt;sbeo:accompanying&lt;br&gt;(transitive, symmetric)&lt;br&gt;&lt;/span&gt;" style="text;html=1;align=center;verticalAlign=middle;resizable=0;points=[];labelBackgroundColor=#ffffff;rotation=0;" vertex="1" connectable="0" parent="5YLZRb2mabN50mvJNGqJ-458">
          <mxGeometry x="0.3048" y="-2" relative="1" as="geometry">
            <mxPoint x="-17.3" y="-10.7" as="offset" />
          </mxGeometry>
        </mxCell>
        <mxCell id="5YLZRb2mabN50mvJNGqJ-460" style="edgeStyle=orthogonalEdgeStyle;curved=1;comic=0;orthogonalLoop=1;jettySize=auto;html=1;entryX=1;entryY=0;entryDx=0;entryDy=0;shadow=0;startArrow=none;startFill=0;endArrow=classic;endFill=1;fontColor=#000000;" edge="1" parent="1" source="5YLZRb2mabN50mvJNGqJ-293" target="5YLZRb2mabN50mvJNGqJ-293">
          <mxGeometry relative="1" as="geometry">
            <Array as="points">
              <mxPoint x="-355" y="455" />
              <mxPoint x="-232" y="455" />
              <mxPoint x="-232" y="497" />
            </Array>
          </mxGeometry>
        </mxCell>
        <mxCell id="5YLZRb2mabN50mvJNGqJ-461" value="sbeo:acquaintanceOf&#xa;(symmetric)" style="text;align=center;verticalAlign=middle;resizable=0;points=[];labelBackgroundColor=#66FFFF;labelBorderColor=none;spacingTop=0;labelPosition=center;verticalLabelPosition=middle;horizontal=1;rotation=0;" vertex="1" connectable="0" parent="5YLZRb2mabN50mvJNGqJ-460">
          <mxGeometry x="-0.2913" relative="1" as="geometry">
            <mxPoint x="20.17" y="16" as="offset" />
          </mxGeometry>
        </mxCell>
        <mxCell id="5YLZRb2mabN50mvJNGqJ-462" style="edgeStyle=orthogonalEdgeStyle;curved=1;comic=0;orthogonalLoop=1;jettySize=auto;html=1;exitX=0;exitY=1;exitDx=0;exitDy=0;shadow=0;startArrow=none;startFill=0;endArrow=classic;endFill=1;fontColor=#000000;" edge="1" parent="1" source="5YLZRb2mabN50mvJNGqJ-327">
          <mxGeometry relative="1" as="geometry">
            <Array as="points">
              <mxPoint x="300" y="302" />
              <mxPoint x="300" y="273" />
            </Array>
            <mxPoint x="400" y="273" as="targetPoint" />
          </mxGeometry>
        </mxCell>
        <mxCell id="5YLZRb2mabN50mvJNGqJ-463" value="&lt;span style=&quot;background-color: rgb(102 , 255 , 255)&quot;&gt;sbeo:adjacentTo&lt;br&gt;(symmetric)&lt;/span&gt;" style="text;html=1;align=center;verticalAlign=middle;resizable=0;points=[];labelBackgroundColor=#ffffff;" vertex="1" connectable="0" parent="5YLZRb2mabN50mvJNGqJ-462">
          <mxGeometry x="-0.2797" y="-1" relative="1" as="geometry">
            <mxPoint x="25.140000000000008" y="-1.7699999999999978" as="offset" />
          </mxGeometry>
        </mxCell>
        <mxCell id="5YLZRb2mabN50mvJNGqJ-464" style="edgeStyle=orthogonalEdgeStyle;curved=1;comic=0;orthogonalLoop=1;jettySize=auto;html=1;exitX=1;exitY=0;exitDx=0;exitDy=0;entryX=1;entryY=0.5;entryDx=0;entryDy=0;shadow=0;startArrow=none;startFill=0;endArrow=classic;endFill=1;fontColor=#000000;" edge="1" parent="1" source="5YLZRb2mabN50mvJNGqJ-293" target="5YLZRb2mabN50mvJNGqJ-293">
          <mxGeometry relative="1" as="geometry">
            <Array as="points">
              <mxPoint x="-212" y="497" />
              <mxPoint x="-212" y="525" />
            </Array>
          </mxGeometry>
        </mxCell>
        <mxCell id="5YLZRb2mabN50mvJNGqJ-465" value="&lt;span style=&quot;background-color: rgb(102 , 255 , 255)&quot;&gt;sbeo:dependentOn&lt;/span&gt;&lt;br&gt;&lt;span style=&quot;background-color: rgb(102 , 255 , 255)&quot;&gt;(transitive)&lt;/span&gt;" style="text;html=1;align=center;verticalAlign=middle;resizable=0;points=[];labelBackgroundColor=#ffffff;" vertex="1" connectable="0" parent="5YLZRb2mabN50mvJNGqJ-464">
          <mxGeometry x="0.1236" y="-29" relative="1" as="geometry">
            <mxPoint y="-1" as="offset" />
          </mxGeometry>
        </mxCell>
        <mxCell id="5YLZRb2mabN50mvJNGqJ-466" style="edgeStyle=orthogonalEdgeStyle;curved=1;comic=0;orthogonalLoop=1;jettySize=auto;html=1;exitX=0.5;exitY=0;exitDx=0;exitDy=0;shadow=0;startArrow=none;startFill=0;endArrow=classic;endFill=1;fontColor=#000000;" edge="1" parent="1" source="5YLZRb2mabN50mvJNGqJ-293">
          <mxGeometry relative="1" as="geometry">
            <mxPoint x="-383.00000000000045" y="497" as="targetPoint" />
            <Array as="points">
              <mxPoint x="-355" y="425" />
              <mxPoint x="-383" y="425" />
            </Array>
          </mxGeometry>
        </mxCell>
        <mxCell id="5YLZRb2mabN50mvJNGqJ-467" value="&lt;span style=&quot;background-color: rgb(102 , 255 , 255)&quot;&gt;sbeo:responsibleTo&lt;br&gt;(transitive)&lt;br&gt;&lt;/span&gt;" style="text;html=1;align=center;verticalAlign=middle;resizable=0;points=[];labelBackgroundColor=#ffffff;" vertex="1" connectable="0" parent="5YLZRb2mabN50mvJNGqJ-466">
          <mxGeometry x="0.6789" relative="1" as="geometry">
            <mxPoint x="0.9900000000000002" y="-26.34" as="offset" />
          </mxGeometry>
        </mxCell>
        <mxCell id="5YLZRb2mabN50mvJNGqJ-468" value="sbeo:Exit&lt;br&gt;sbeo:Route&lt;br&gt;sbeo:Entrance&lt;br&gt;seas:ZoneConnection&lt;br&gt;seas:Zone" style="ellipse;whiteSpace=wrap;html=1;aspect=fixed;fillColor=#FF99FF;strokeColor=#6c8ebf;rounded=0;labelBackgroundColor=none;align=center;" vertex="1" parent="1">
          <mxGeometry x="-709.97" y="204" width="80" height="80" as="geometry" />
        </mxCell>
        <mxCell id="5YLZRb2mabN50mvJNGqJ-469" style="edgeStyle=orthogonalEdgeStyle;curved=1;comic=0;orthogonalLoop=1;jettySize=auto;html=1;exitX=0;exitY=0;exitDx=0;exitDy=0;shadow=0;startArrow=none;startFill=0;endArrow=classic;endFill=1;fontColor=#000000;entryX=0;entryY=0.5;entryDx=0;entryDy=0;" edge="1" parent="1" source="5YLZRb2mabN50mvJNGqJ-315" target="5YLZRb2mabN50mvJNGqJ-468">
          <mxGeometry relative="1" as="geometry">
            <mxPoint x="-684.1142712474622" y="452.35572875253786" as="sourcePoint" />
            <mxPoint x="-809.97" y="359" as="targetPoint" />
            <Array as="points">
              <mxPoint x="-829.97" y="371" />
              <mxPoint x="-829.97" y="244" />
            </Array>
          </mxGeometry>
        </mxCell>
        <mxCell id="5YLZRb2mabN50mvJNGqJ-470" value="&lt;span style=&quot;background-color: rgb(102 , 255 , 255)&quot;&gt;sbeo:startsFrom&lt;/span&gt;" style="text;html=1;align=center;verticalAlign=middle;resizable=0;points=[];labelBackgroundColor=#ffffff;" vertex="1" connectable="0" parent="5YLZRb2mabN50mvJNGqJ-469">
          <mxGeometry x="-0.028" y="-8" relative="1" as="geometry">
            <mxPoint x="-30.96999999999999" y="-57.03" as="offset" />
          </mxGeometry>
        </mxCell>
        <mxCell id="5YLZRb2mabN50mvJNGqJ-471" style="edgeStyle=orthogonalEdgeStyle;curved=1;comic=0;orthogonalLoop=1;jettySize=auto;html=1;exitX=0.5;exitY=0;exitDx=0;exitDy=0;entryX=1;entryY=0;entryDx=0;entryDy=0;shadow=0;startArrow=none;startFill=0;endArrow=classic;endFill=1;fontColor=#000000;" edge="1" parent="1" source="5YLZRb2mabN50mvJNGqJ-468" target="5YLZRb2mabN50mvJNGqJ-468">
          <mxGeometry relative="1" as="geometry">
            <Array as="points">
              <mxPoint x="-669.97" y="144" />
              <mxPoint x="-641.97" y="144" />
            </Array>
          </mxGeometry>
        </mxCell>
        <mxCell id="5YLZRb2mabN50mvJNGqJ-472" value="sbeo:connectedTo&lt;br&gt;(symmetric)" style="text;html=1;align=center;verticalAlign=middle;resizable=0;points=[];labelBackgroundColor=#99FFFF;" vertex="1" connectable="0" parent="5YLZRb2mabN50mvJNGqJ-471">
          <mxGeometry x="0.339" relative="1" as="geometry">
            <mxPoint x="-17.3" y="0.8300000000000001" as="offset" />
          </mxGeometry>
        </mxCell>
        <mxCell id="5YLZRb2mabN50mvJNGqJ-473" style="edgeStyle=orthogonalEdgeStyle;curved=1;comic=0;orthogonalLoop=1;jettySize=auto;html=1;entryX=0.5;entryY=1;entryDx=0;entryDy=0;shadow=0;startArrow=none;startFill=0;endArrow=classic;endFill=1;fontColor=#000000;exitX=0.5;exitY=0;exitDx=0;exitDy=0;" edge="1" parent="1" source="5YLZRb2mabN50mvJNGqJ-477" target="5YLZRb2mabN50mvJNGqJ-277">
          <mxGeometry relative="1" as="geometry">
            <Array as="points">
              <mxPoint x="680" y="416" />
              <mxPoint x="680" y="416" />
            </Array>
          </mxGeometry>
        </mxCell>
        <mxCell id="5YLZRb2mabN50mvJNGqJ-474" value="&lt;span style=&quot;background-color: rgb(102 , 255 , 255)&quot;&gt;sbeo:locatedIn&lt;/span&gt;" style="text;html=1;align=center;verticalAlign=middle;resizable=0;points=[];labelBackgroundColor=#ffffff;rotation=0;" vertex="1" connectable="0" parent="5YLZRb2mabN50mvJNGqJ-473">
          <mxGeometry x="-0.3128" y="-8" relative="1" as="geometry">
            <mxPoint x="-8" y="-22.519999999999996" as="offset" />
          </mxGeometry>
        </mxCell>
        <mxCell id="5YLZRb2mabN50mvJNGqJ-475" style="edgeStyle=orthogonalEdgeStyle;curved=1;comic=0;orthogonalLoop=1;jettySize=auto;html=1;entryX=1;entryY=0.5;entryDx=0;entryDy=0;shadow=0;startArrow=none;startFill=0;endArrow=classic;endFill=1;fontColor=#000000;exitX=0;exitY=0.5;exitDx=0;exitDy=0;" edge="1" parent="1" source="5YLZRb2mabN50mvJNGqJ-477" target="5YLZRb2mabN50mvJNGqJ-327">
          <mxGeometry relative="1" as="geometry">
            <Array as="points">
              <mxPoint x="630" y="471" />
              <mxPoint x="630" y="274" />
            </Array>
          </mxGeometry>
        </mxCell>
        <mxCell id="5YLZRb2mabN50mvJNGqJ-476" value="&lt;span style=&quot;background-color: rgb(102 , 255 , 255)&quot;&gt;sbeo:locatedIn&lt;/span&gt;" style="text;html=1;align=center;verticalAlign=middle;resizable=0;points=[];labelBackgroundColor=#ffffff;rotation=0;" vertex="1" connectable="0" parent="5YLZRb2mabN50mvJNGqJ-475">
          <mxGeometry x="0.0607" y="2" relative="1" as="geometry">
            <mxPoint x="12" y="117" as="offset" />
          </mxGeometry>
        </mxCell>
        <mxCell id="5YLZRb2mabN50mvJNGqJ-477" value="sbeo:Exit&lt;br&gt;sbeo:Entrance&lt;br&gt;seas:ZoneConnection&lt;br&gt;seas:Zone&lt;br&gt;foaf:Person&lt;br&gt;sbeo:Incident" style="ellipse;whiteSpace=wrap;html=1;aspect=fixed;fillColor=#FF99FF;strokeColor=#6c8ebf;rounded=0;labelBackgroundColor=none;align=center;" vertex="1" parent="1">
          <mxGeometry x="640" y="431" width="80" height="80" as="geometry" />
        </mxCell>
        <mxCell id="5YLZRb2mabN50mvJNGqJ-478" style="edgeStyle=orthogonalEdgeStyle;curved=1;comic=0;orthogonalLoop=1;jettySize=auto;html=1;entryX=1;entryY=0.5;entryDx=0;entryDy=0;shadow=0;startArrow=none;startFill=0;endArrow=classic;endFill=1;fontColor=#000000;" edge="1" parent="1" source="5YLZRb2mabN50mvJNGqJ-482" target="5YLZRb2mabN50mvJNGqJ-277">
          <mxGeometry relative="1" as="geometry" />
        </mxCell>
        <mxCell id="5YLZRb2mabN50mvJNGqJ-479" value="sbeo:installedIn" style="text;html=1;align=center;verticalAlign=middle;resizable=0;points=[];labelBackgroundColor=#66FFFF;rotation=0;" vertex="1" connectable="0" parent="5YLZRb2mabN50mvJNGqJ-478">
          <mxGeometry x="-0.3551" y="5" relative="1" as="geometry">
            <mxPoint x="9.92" y="-82.44" as="offset" />
          </mxGeometry>
        </mxCell>
        <mxCell id="5YLZRb2mabN50mvJNGqJ-480" style="edgeStyle=orthogonalEdgeStyle;curved=1;comic=0;orthogonalLoop=1;jettySize=auto;html=1;entryX=1;entryY=0.5;entryDx=0;entryDy=0;shadow=0;startArrow=none;startFill=0;endArrow=classic;endFill=1;fontColor=#000000;" edge="1" parent="1" source="5YLZRb2mabN50mvJNGqJ-482" target="5YLZRb2mabN50mvJNGqJ-327">
          <mxGeometry relative="1" as="geometry">
            <Array as="points">
              <mxPoint x="830" y="560" />
              <mxPoint x="600" y="560" />
              <mxPoint x="600" y="274" />
            </Array>
          </mxGeometry>
        </mxCell>
        <mxCell id="5YLZRb2mabN50mvJNGqJ-481" value="&lt;span style=&quot;background-color: rgb(102 , 255 , 255)&quot;&gt;sbeo:installedIn&lt;/span&gt;" style="text;html=1;align=center;verticalAlign=middle;resizable=0;points=[];labelBackgroundColor=#ffffff;" vertex="1" connectable="0" parent="5YLZRb2mabN50mvJNGqJ-480">
          <mxGeometry x="-0.1676" y="1" relative="1" as="geometry">
            <mxPoint x="111" y="6.999999999999999" as="offset" />
          </mxGeometry>
        </mxCell>
        <mxCell id="5YLZRb2mabN50mvJNGqJ-482" value="sbeo:Device&lt;br&gt;seas:ZoneConnection&lt;br&gt;seas:Zone" style="ellipse;whiteSpace=wrap;html=1;aspect=fixed;fillColor=#FF99FF;strokeColor=#6c8ebf;rounded=0;labelBackgroundColor=none;align=center;" vertex="1" parent="1">
          <mxGeometry x="790.19" y="439.5" width="80" height="80" as="geometry" />
        </mxCell>
        <mxCell id="5YLZRb2mabN50mvJNGqJ-483" value="rdfs:subClassOf" style="text;html=1;align=center;verticalAlign=middle;resizable=0;points=[];labelBackgroundColor=#ffffff;fontColor=#000000;" vertex="1" connectable="0" parent="1">
          <mxGeometry x="-709.0033333333333" y="470.0000000000002" as="geometry">
            <mxPoint x="8.83" y="-13" as="offset" />
          </mxGeometry>
        </mxCell>
        <mxCell id="5YLZRb2mabN50mvJNGqJ-484" value="&lt;span style=&quot;white-space: normal&quot;&gt;sbeo:Earthquake&lt;/span&gt;" style="ellipse;whiteSpace=wrap;html=1;aspect=fixed;fillColor=#dae8fc;strokeColor=#6c8ebf;shadow=0;" vertex="1" parent="1">
          <mxGeometry y="343" width="80" height="80" as="geometry" />
        </mxCell>
        <mxCell id="5YLZRb2mabN50mvJNGqJ-485" style="edgeStyle=orthogonalEdgeStyle;curved=1;comic=0;orthogonalLoop=1;jettySize=auto;html=1;entryX=0.5;entryY=0;entryDx=0;entryDy=0;shadow=0;startArrow=classic;startFill=1;endArrow=none;endFill=0;dashed=1;exitX=1;exitY=0.5;exitDx=0;exitDy=0;" edge="1" parent="1" source="5YLZRb2mabN50mvJNGqJ-308" target="5YLZRb2mabN50mvJNGqJ-484">
          <mxGeometry relative="1" as="geometry">
            <mxPoint x="-49" y="266" as="sourcePoint" />
            <mxPoint x="-20.139999999999873" y="441" as="targetPoint" />
            <Array as="points" />
          </mxGeometry>
        </mxCell>
        <mxCell id="5YLZRb2mabN50mvJNGqJ-486" value="rdfs:subClassOf" style="text;html=1;align=center;verticalAlign=middle;resizable=0;points=[];labelBackgroundColor=#ffffff;fontColor=#000000;" vertex="1" connectable="0" parent="5YLZRb2mabN50mvJNGqJ-485">
          <mxGeometry x="0.4454" y="-9" relative="1" as="geometry">
            <mxPoint x="-11" y="-35.83" as="offset" />
          </mxGeometry>
        </mxCell>
        <mxCell id="5YLZRb2mabN50mvJNGqJ-487" value="xsd:integer" style="rounded=0;whiteSpace=wrap;html=1;fillColor=#ffff88;strokeColor=#36393d;" vertex="1" parent="1">
          <mxGeometry x="180" y="256" width="78" height="20" as="geometry" />
        </mxCell>
        <mxCell id="5YLZRb2mabN50mvJNGqJ-488" style="edgeStyle=orthogonalEdgeStyle;curved=1;comic=0;orthogonalLoop=1;jettySize=auto;html=1;exitX=0;exitY=0;exitDx=0;exitDy=0;entryX=0.5;entryY=0;entryDx=0;entryDy=0;shadow=0;startArrow=none;startFill=0;endArrow=classic;endFill=1;fontColor=#000000;" edge="1" parent="1" source="5YLZRb2mabN50mvJNGqJ-327" target="5YLZRb2mabN50mvJNGqJ-487">
          <mxGeometry relative="1" as="geometry">
            <Array as="points">
              <mxPoint x="412" y="186" />
              <mxPoint x="219" y="186" />
            </Array>
            <mxPoint x="558.2842712474799" y="301.78427124747964" as="sourcePoint" />
            <mxPoint x="738.9899999999998" y="751" as="targetPoint" />
          </mxGeometry>
        </mxCell>
        <mxCell id="5YLZRb2mabN50mvJNGqJ-489" value="&lt;span style=&quot;background-color: rgb(102 , 255 , 102)&quot;&gt;sbeo:current&lt;br&gt;Occupancy&lt;/span&gt;" style="text;html=1;align=center;verticalAlign=middle;resizable=0;points=[];labelBackgroundColor=#ffffff;" vertex="1" connectable="0" parent="5YLZRb2mabN50mvJNGqJ-488">
          <mxGeometry x="0.3717" y="1" relative="1" as="geometry">
            <mxPoint x="50.66999999999999" y="-7.0000000000000036" as="offset" />
          </mxGeometry>
        </mxCell>
        <mxCell id="5YLZRb2mabN50mvJNGqJ-490" value="SBEO :Smart Building Evacuation Ontology&amp;nbsp;&lt;br&gt;&lt;span style=&quot;font-weight: normal&quot;&gt;Classes and Properties Diagram (Complete)&lt;/span&gt;" style="text;strokeColor=none;fillColor=none;html=1;fontSize=24;fontStyle=1;verticalAlign=middle;align=center;" vertex="1" parent="1">
          <mxGeometry x="123" y="46" width="100" height="40" as="geometry" />
        </mxCell>
        <mxCell id="5YLZRb2mabN50mvJNGqJ-491" style="edgeStyle=orthogonalEdgeStyle;curved=1;comic=0;orthogonalLoop=1;jettySize=auto;html=1;exitX=0.5;exitY=1;exitDx=0;exitDy=0;entryX=0.5;entryY=0;entryDx=0;entryDy=0;shadow=0;startArrow=none;startFill=0;endArrow=classic;endFill=1;fontColor=#000000;" edge="1" parent="1" target="5YLZRb2mabN50mvJNGqJ-517">
          <mxGeometry relative="1" as="geometry">
            <Array as="points">
              <mxPoint x="-328" y="608" />
              <mxPoint x="-567" y="608" />
              <mxPoint x="-567" y="794" />
              <mxPoint x="-476" y="794" />
            </Array>
            <mxPoint x="-328.00000000000045" y="554" as="sourcePoint" />
          </mxGeometry>
        </mxCell>
        <mxCell id="5YLZRb2mabN50mvJNGqJ-492" value="&lt;span style=&quot;background-color: rgb(255 , 102 , 102)&quot;&gt;foaf:lastName&lt;/span&gt;" style="text;html=1;align=center;verticalAlign=middle;resizable=0;points=[];labelBackgroundColor=#ffffff;" vertex="1" connectable="0" parent="5YLZRb2mabN50mvJNGqJ-491">
          <mxGeometry x="0.504" y="-2" relative="1" as="geometry">
            <mxPoint x="15" y="-0.3299999999999912" as="offset" />
          </mxGeometry>
        </mxCell>
        <mxCell id="5YLZRb2mabN50mvJNGqJ-493" style="edgeStyle=orthogonalEdgeStyle;curved=1;comic=0;orthogonalLoop=1;jettySize=auto;html=1;exitX=0.5;exitY=1;exitDx=0;exitDy=0;entryX=0.5;entryY=0;entryDx=0;entryDy=0;shadow=0;startArrow=none;startFill=0;endArrow=classic;endFill=1;fontColor=#000000;" edge="1" parent="1" target="5YLZRb2mabN50mvJNGqJ-518">
          <mxGeometry relative="1" as="geometry">
            <Array as="points">
              <mxPoint x="-328" y="598" />
              <mxPoint x="-597" y="598" />
              <mxPoint x="-597" y="838" />
              <mxPoint x="-476" y="838" />
            </Array>
            <mxPoint x="-328.00000000000045" y="554" as="sourcePoint" />
          </mxGeometry>
        </mxCell>
        <mxCell id="5YLZRb2mabN50mvJNGqJ-494" value="&lt;span style=&quot;background-color: rgb(102 , 255 , 102)&quot;&gt;sbeo:evacuation&lt;/span&gt;&lt;br&gt;&lt;span style=&quot;background-color: rgb(102 , 255 , 102)&quot;&gt;Status&lt;/span&gt;" style="text;html=1;align=center;verticalAlign=middle;resizable=0;points=[];labelBackgroundColor=#ffffff;" vertex="1" connectable="0" parent="5YLZRb2mabN50mvJNGqJ-493">
          <mxGeometry x="0.4045" y="4" relative="1" as="geometry">
            <mxPoint x="19" y="42.33" as="offset" />
          </mxGeometry>
        </mxCell>
        <mxCell id="5YLZRb2mabN50mvJNGqJ-495" style="edgeStyle=orthogonalEdgeStyle;curved=1;comic=0;orthogonalLoop=1;jettySize=auto;html=1;exitX=0.5;exitY=1;exitDx=0;exitDy=0;entryX=0.5;entryY=0;entryDx=0;entryDy=0;shadow=0;startArrow=none;startFill=0;endArrow=classic;endFill=1;fontColor=#000000;" edge="1" parent="1" target="5YLZRb2mabN50mvJNGqJ-523">
          <mxGeometry relative="1" as="geometry">
            <Array as="points">
              <mxPoint x="-328" y="668" />
              <mxPoint x="-478" y="668" />
            </Array>
            <mxPoint x="-328.00000000000045" y="554" as="sourcePoint" />
          </mxGeometry>
        </mxCell>
        <mxCell id="5YLZRb2mabN50mvJNGqJ-496" value="&lt;span style=&quot;background-color: rgb(102 , 255 , 102)&quot;&gt;sbeo:familyID&lt;/span&gt;" style="text;html=1;align=center;verticalAlign=middle;resizable=0;points=[];labelBackgroundColor=#ffffff;" vertex="1" connectable="0" parent="5YLZRb2mabN50mvJNGqJ-495">
          <mxGeometry x="-0.0356" y="-5" relative="1" as="geometry">
            <mxPoint x="-46.83" y="-5" as="offset" />
          </mxGeometry>
        </mxCell>
        <mxCell id="5YLZRb2mabN50mvJNGqJ-497" style="edgeStyle=orthogonalEdgeStyle;curved=1;comic=0;orthogonalLoop=1;jettySize=auto;html=1;exitX=0.5;exitY=1;exitDx=0;exitDy=0;entryX=0.5;entryY=0;entryDx=0;entryDy=0;shadow=0;startArrow=none;startFill=0;endArrow=classic;endFill=1;fontColor=#000000;" edge="1" parent="1" target="5YLZRb2mabN50mvJNGqJ-515">
          <mxGeometry relative="1" as="geometry">
            <Array as="points">
              <mxPoint x="-328" y="704" />
              <mxPoint x="-476" y="704" />
            </Array>
            <mxPoint x="-328.00000000000045" y="554" as="sourcePoint" />
          </mxGeometry>
        </mxCell>
        <mxCell id="5YLZRb2mabN50mvJNGqJ-498" value="&lt;span style=&quot;background-color: rgb(102 , 255 , 102)&quot;&gt;sbeo:groupID&lt;/span&gt;" style="text;html=1;align=center;verticalAlign=middle;resizable=0;points=[];labelBackgroundColor=#ffffff;" vertex="1" connectable="0" parent="5YLZRb2mabN50mvJNGqJ-497">
          <mxGeometry x="-0.0031" y="-6" relative="1" as="geometry">
            <mxPoint x="-39.35" y="-6" as="offset" />
          </mxGeometry>
        </mxCell>
        <mxCell id="5YLZRb2mabN50mvJNGqJ-499" style="edgeStyle=orthogonalEdgeStyle;curved=1;comic=0;orthogonalLoop=1;jettySize=auto;html=1;exitX=0.5;exitY=1;exitDx=0;exitDy=0;entryX=0.5;entryY=0;entryDx=0;entryDy=0;shadow=0;startArrow=none;startFill=0;endArrow=classic;endFill=1;fontColor=#000000;" edge="1" parent="1" target="5YLZRb2mabN50mvJNGqJ-516">
          <mxGeometry relative="1" as="geometry">
            <Array as="points">
              <mxPoint x="-317" y="554" />
              <mxPoint x="-317" y="744" />
              <mxPoint x="-476" y="744" />
            </Array>
            <mxPoint x="-328.00000000000045" y="554" as="sourcePoint" />
          </mxGeometry>
        </mxCell>
        <mxCell id="5YLZRb2mabN50mvJNGqJ-500" value="&lt;span style=&quot;background-color: rgb(102 , 255 , 102)&quot;&gt;sbeo:fitnessLevel&lt;/span&gt;" style="text;html=1;align=center;verticalAlign=middle;resizable=0;points=[];labelBackgroundColor=#ffffff;" vertex="1" connectable="0" parent="5YLZRb2mabN50mvJNGqJ-499">
          <mxGeometry x="0.361" y="-2" relative="1" as="geometry">
            <mxPoint x="8" y="-10" as="offset" />
          </mxGeometry>
        </mxCell>
        <mxCell id="5YLZRb2mabN50mvJNGqJ-501" style="edgeStyle=orthogonalEdgeStyle;curved=1;comic=0;orthogonalLoop=1;jettySize=auto;html=1;exitX=0.5;exitY=1;exitDx=0;exitDy=0;entryX=0.5;entryY=0;entryDx=0;entryDy=0;shadow=0;startArrow=none;startFill=0;endArrow=classic;endFill=1;fontColor=#000000;" edge="1" parent="1" target="5YLZRb2mabN50mvJNGqJ-519">
          <mxGeometry relative="1" as="geometry">
            <Array as="points">
              <mxPoint x="-328" y="588" />
              <mxPoint x="-637" y="588" />
              <mxPoint x="-637" y="878" />
              <mxPoint x="-476" y="878" />
            </Array>
            <mxPoint x="-328.00000000000045" y="554" as="sourcePoint" />
          </mxGeometry>
        </mxCell>
        <mxCell id="5YLZRb2mabN50mvJNGqJ-502" value="&lt;span style=&quot;background-color: rgb(102 , 255 , 102)&quot;&gt;sbeo:familiarity&lt;/span&gt;&lt;br&gt;&lt;span style=&quot;background-color: rgb(102 , 255 , 102)&quot;&gt;WithBuilding&lt;/span&gt;" style="text;html=1;align=center;verticalAlign=middle;resizable=0;points=[];labelBackgroundColor=#ffffff;" vertex="1" connectable="0" parent="5YLZRb2mabN50mvJNGqJ-501">
          <mxGeometry x="-0.1464" y="3" relative="1" as="geometry">
            <mxPoint x="56" y="272" as="offset" />
          </mxGeometry>
        </mxCell>
        <mxCell id="5YLZRb2mabN50mvJNGqJ-503" style="edgeStyle=orthogonalEdgeStyle;curved=1;comic=0;orthogonalLoop=1;jettySize=auto;html=1;exitX=0.5;exitY=1;exitDx=0;exitDy=0;entryX=1;entryY=0.5;entryDx=0;entryDy=0;shadow=0;startArrow=none;startFill=0;endArrow=classic;endFill=1;fontColor=#000000;" edge="1" parent="1" target="5YLZRb2mabN50mvJNGqJ-516">
          <mxGeometry relative="1" as="geometry">
            <Array as="points">
              <mxPoint x="-307" y="554" />
              <mxPoint x="-307" y="778" />
              <mxPoint x="-388" y="778" />
              <mxPoint x="-388" y="776" />
            </Array>
            <mxPoint x="-328.00000000000045" y="554" as="sourcePoint" />
          </mxGeometry>
        </mxCell>
        <mxCell id="5YLZRb2mabN50mvJNGqJ-504" value="&lt;span style=&quot;background-color: rgb(102 , 255 , 102)&quot;&gt;sbeo:hasID&lt;/span&gt;" style="text;html=1;align=center;verticalAlign=middle;resizable=0;points=[];labelBackgroundColor=#ffffff;" vertex="1" connectable="0" parent="5YLZRb2mabN50mvJNGqJ-503">
          <mxGeometry x="0.477" y="-5" relative="1" as="geometry">
            <mxPoint x="-27.67" y="3.07" as="offset" />
          </mxGeometry>
        </mxCell>
        <mxCell id="5YLZRb2mabN50mvJNGqJ-505" style="edgeStyle=orthogonalEdgeStyle;curved=1;comic=0;orthogonalLoop=1;jettySize=auto;html=1;exitX=0.5;exitY=1;exitDx=0;exitDy=0;entryX=0.5;entryY=0;entryDx=0;entryDy=0;shadow=0;startArrow=none;startFill=0;endArrow=classic;endFill=1;fontColor=#000000;" edge="1" parent="1" target="5YLZRb2mabN50mvJNGqJ-520">
          <mxGeometry relative="1" as="geometry">
            <Array as="points">
              <mxPoint x="-297" y="554" />
              <mxPoint x="-297" y="798" />
              <mxPoint x="-388" y="798" />
            </Array>
            <mxPoint x="-328.00000000000045" y="554" as="sourcePoint" />
          </mxGeometry>
        </mxCell>
        <mxCell id="5YLZRb2mabN50mvJNGqJ-506" value="&lt;span style=&quot;background-color: rgb(255 , 102 , 102)&quot;&gt;foaf:firstName&lt;/span&gt;" style="text;html=1;align=center;verticalAlign=middle;resizable=0;points=[];labelBackgroundColor=#ffffff;" vertex="1" connectable="0" parent="5YLZRb2mabN50mvJNGqJ-505">
          <mxGeometry x="0.1755" y="-76" relative="1" as="geometry">
            <mxPoint x="36" y="50.83" as="offset" />
          </mxGeometry>
        </mxCell>
        <mxCell id="5YLZRb2mabN50mvJNGqJ-507" style="edgeStyle=orthogonalEdgeStyle;curved=1;comic=0;orthogonalLoop=1;jettySize=auto;html=1;exitX=0.5;exitY=1;exitDx=0;exitDy=0;entryX=0.5;entryY=0;entryDx=0;entryDy=0;shadow=0;startArrow=none;startFill=0;endArrow=classic;endFill=1;fontColor=#000000;" edge="1" parent="1" target="5YLZRb2mabN50mvJNGqJ-521">
          <mxGeometry relative="1" as="geometry">
            <Array as="points">
              <mxPoint x="-247" y="554" />
              <mxPoint x="-247" y="878" />
              <mxPoint x="-388" y="878" />
            </Array>
            <mxPoint x="-328.00000000000045" y="554" as="sourcePoint" />
          </mxGeometry>
        </mxCell>
        <mxCell id="5YLZRb2mabN50mvJNGqJ-508" value="&lt;span style=&quot;background-color: rgb(102 , 255 , 102)&quot;&gt;sbeo:needs&lt;br&gt;Supervision&lt;/span&gt;" style="text;html=1;align=center;verticalAlign=middle;resizable=0;points=[];labelBackgroundColor=#ffffff;" vertex="1" connectable="0" parent="5YLZRb2mabN50mvJNGqJ-507">
          <mxGeometry x="0.5475" y="-1" relative="1" as="geometry">
            <mxPoint x="-1.6699999999999982" y="-10" as="offset" />
          </mxGeometry>
        </mxCell>
        <mxCell id="5YLZRb2mabN50mvJNGqJ-509" style="edgeStyle=orthogonalEdgeStyle;curved=1;comic=0;orthogonalLoop=1;jettySize=auto;html=1;exitX=0.5;exitY=1;exitDx=0;exitDy=0;entryX=0.5;entryY=0;entryDx=0;entryDy=0;shadow=0;startArrow=none;startFill=0;endArrow=classic;endFill=1;fontColor=#000000;" edge="1" parent="1" target="5YLZRb2mabN50mvJNGqJ-522">
          <mxGeometry relative="1" as="geometry">
            <Array as="points">
              <mxPoint x="-277" y="554" />
              <mxPoint x="-277" y="838" />
              <mxPoint x="-388" y="838" />
            </Array>
            <mxPoint x="-328.00000000000045" y="554" as="sourcePoint" />
          </mxGeometry>
        </mxCell>
        <mxCell id="5YLZRb2mabN50mvJNGqJ-510" value="&lt;span style=&quot;color: rgba(0 , 0 , 0 , 0) ; font-family: monospace ; font-size: 0px ; background-color: rgb(248 , 249 , 250)&quot;&gt;%3CmxGraphModel%3E%3Croot%3E%3CmxCell%20id%3D%220%22%2F%3E%3CmxCell%20id%3D%221%22%20parent%3D%220%22%2F%3E%3CmxCell%20id%3D%222%22%20value%3D%22xsd%3Astring%22%20style%3D%22rounded%3D0%3BwhiteSpace%3Dwrap%3Bhtml%3D1%3BfillColor%3D%23ffff88%3BstrokeColor%3D%2336393d%3B%22%20vertex%3D%221%22%20parent%3D%221%22%3E%3CmxGeometry%20x%3D%22-560%22%20y%3D%22950%22%20width%3D%2278%22%20height%3D%2220%22%20as%3D%22geometry%22%2F%3E%3C%2FmxCell%3E%3C%2Froot%3E%3C%2FmxGraphModel%3E&lt;/span&gt;" style="text;html=1;align=center;verticalAlign=middle;resizable=0;points=[];labelBackgroundColor=#ffffff;" vertex="1" connectable="0" parent="5YLZRb2mabN50mvJNGqJ-509">
          <mxGeometry x="0.5207" y="-5" relative="1" as="geometry">
            <mxPoint as="offset" />
          </mxGeometry>
        </mxCell>
        <mxCell id="5YLZRb2mabN50mvJNGqJ-511" value="&lt;span style=&quot;background-color: rgb(102 , 255 , 102)&quot;&gt;sbeo:atTime&lt;/span&gt;" style="text;html=1;align=center;verticalAlign=middle;resizable=0;points=[];labelBackgroundColor=#ffffff;" vertex="1" connectable="0" parent="5YLZRb2mabN50mvJNGqJ-509">
          <mxGeometry x="0.698" y="-10" relative="1" as="geometry">
            <mxPoint x="33" y="-4" as="offset" />
          </mxGeometry>
        </mxCell>
        <mxCell id="5YLZRb2mabN50mvJNGqJ-512" style="edgeStyle=orthogonalEdgeStyle;orthogonalLoop=1;jettySize=auto;html=1;exitX=0.5;exitY=1;exitDx=0;exitDy=0;entryX=0.5;entryY=0;entryDx=0;entryDy=0;curved=1;" edge="1" parent="1" target="5YLZRb2mabN50mvJNGqJ-514">
          <mxGeometry relative="1" as="geometry">
            <mxPoint x="-328.00000000000045" y="554" as="sourcePoint" />
            <Array as="points">
              <mxPoint x="-328" y="618" />
              <mxPoint x="-476" y="618" />
            </Array>
          </mxGeometry>
        </mxCell>
        <mxCell id="5YLZRb2mabN50mvJNGqJ-513" value="&lt;span style=&quot;&quot;&gt;foaf:age&lt;/span&gt;" style="text;html=1;align=center;verticalAlign=middle;resizable=0;points=[];labelBackgroundColor=#FF6666;" vertex="1" connectable="0" parent="5YLZRb2mabN50mvJNGqJ-512">
          <mxGeometry x="0.0505" y="1" relative="1" as="geometry">
            <mxPoint x="-10.93" y="-1" as="offset" />
          </mxGeometry>
        </mxCell>
        <mxCell id="5YLZRb2mabN50mvJNGqJ-514" value="xsd:integer" style="rounded=0;whiteSpace=wrap;html=1;fillColor=#ffff88;strokeColor=#36393d;" vertex="1" parent="1">
          <mxGeometry x="-515" y="638" width="78" height="20" as="geometry" />
        </mxCell>
        <mxCell id="5YLZRb2mabN50mvJNGqJ-515" value="xsd:integer" style="rounded=0;whiteSpace=wrap;html=1;fillColor=#ffff88;strokeColor=#36393d;" vertex="1" parent="1">
          <mxGeometry x="-515" y="722" width="78" height="20" as="geometry" />
        </mxCell>
        <mxCell id="5YLZRb2mabN50mvJNGqJ-516" value="xsd:integer" style="rounded=0;whiteSpace=wrap;html=1;fillColor=#ffff88;strokeColor=#36393d;" vertex="1" parent="1">
          <mxGeometry x="-515" y="766.07" width="78" height="20" as="geometry" />
        </mxCell>
        <mxCell id="5YLZRb2mabN50mvJNGqJ-517" value="xsd:string" style="rounded=0;whiteSpace=wrap;html=1;fillColor=#ffff88;strokeColor=#36393d;" vertex="1" parent="1">
          <mxGeometry x="-515" y="813.9999999999999" width="78" height="20" as="geometry" />
        </mxCell>
        <mxCell id="5YLZRb2mabN50mvJNGqJ-518" value="xsd:string" style="rounded=0;whiteSpace=wrap;html=1;fillColor=#ffff88;strokeColor=#36393d;" vertex="1" parent="1">
          <mxGeometry x="-515" y="857" width="78" height="20" as="geometry" />
        </mxCell>
        <mxCell id="5YLZRb2mabN50mvJNGqJ-519" value="xsd:boolean" style="rounded=0;whiteSpace=wrap;html=1;fillColor=#ffff88;strokeColor=#36393d;" vertex="1" parent="1">
          <mxGeometry x="-515" y="904" width="78" height="20" as="geometry" />
        </mxCell>
        <mxCell id="5YLZRb2mabN50mvJNGqJ-520" value="xsd:string" style="rounded=0;whiteSpace=wrap;html=1;fillColor=#ffff88;strokeColor=#36393d;" vertex="1" parent="1">
          <mxGeometry x="-427" y="814" width="78" height="20" as="geometry" />
        </mxCell>
        <mxCell id="5YLZRb2mabN50mvJNGqJ-521" value="xsd:boolean" style="rounded=0;whiteSpace=wrap;html=1;fillColor=#ffff88;strokeColor=#36393d;" vertex="1" parent="1">
          <mxGeometry x="-427" y="904" width="78" height="20" as="geometry" />
        </mxCell>
        <mxCell id="5YLZRb2mabN50mvJNGqJ-522" value="xsd:long" style="rounded=0;whiteSpace=wrap;html=1;fillColor=#ffff88;strokeColor=#36393d;" vertex="1" parent="1">
          <mxGeometry x="-427" y="857" width="78" height="20" as="geometry" />
        </mxCell>
        <mxCell id="5YLZRb2mabN50mvJNGqJ-523" value="xsd:integer" style="rounded=0;whiteSpace=wrap;html=1;fillColor=#ffff88;strokeColor=#36393d;" vertex="1" parent="1">
          <mxGeometry x="-517" y="682" width="78" height="20" as="geometry" />
        </mxCell>
        <mxCell id="5YLZRb2mabN50mvJNGqJ-524" value="" style="shape=ext;double=1;whiteSpace=wrap;html=1;align=center;" vertex="1" parent="1">
          <mxGeometry x="-1160" y="30" width="236" height="340" as="geometry" />
        </mxCell>
        <mxCell id="5YLZRb2mabN50mvJNGqJ-525" value="" style="ellipse;whiteSpace=wrap;html=1;aspect=fixed;fillColor=#dae8fc;strokeColor=#6c8ebf;" vertex="1" parent="1">
          <mxGeometry x="-1123" y="39.5" width="40" height="40" as="geometry" />
        </mxCell>
        <mxCell id="5YLZRb2mabN50mvJNGqJ-526" value="" style="ellipse;whiteSpace=wrap;html=1;aspect=fixed;fillColor=#1ba1e2;strokeColor=#006EAF;fontColor=#ffffff;" vertex="1" parent="1">
          <mxGeometry x="-1123" y="84.5" width="40" height="40" as="geometry" />
        </mxCell>
        <mxCell id="5YLZRb2mabN50mvJNGqJ-527" value="" style="rounded=0;whiteSpace=wrap;html=1;fillColor=#ffff88;strokeColor=#36393d;" vertex="1" parent="1">
          <mxGeometry x="-1128.5" y="183.5" width="49" height="20" as="geometry" />
        </mxCell>
        <UserObject label="&lt;span style=&quot;font-size: 15px ; text-align: center ; background-color: rgb(102 , 255 , 102)&quot;&gt;&lt;font color=&quot;#66ff66&quot;&gt;sbeo:ha&lt;/font&gt;&lt;/span&gt;" id="5YLZRb2mabN50mvJNGqJ-528">
          <mxCell style="text;html=1;" vertex="1" parent="1">
            <mxGeometry x="-1132" y="248.5" width="56" height="30" as="geometry" />
          </mxCell>
        </UserObject>
        <UserObject label="&lt;span style=&quot;font-size: 15px ; text-align: center ; background-color: rgb(102 , 255 , 255)&quot;&gt;&lt;font color=&quot;#66ffff&quot;&gt;sbeo:ha&lt;/font&gt;&lt;/span&gt;" id="5YLZRb2mabN50mvJNGqJ-529">
          <mxCell style="text;html=1;" vertex="1" parent="1">
            <mxGeometry x="-1132" y="215.5" width="56" height="30" as="geometry" />
          </mxCell>
        </UserObject>
        <mxCell id="5YLZRb2mabN50mvJNGqJ-530" value="" style="ellipse;whiteSpace=wrap;html=1;aspect=fixed;fillColor=#FF99FF;strokeColor=#6c8ebf;rounded=0;labelBackgroundColor=none;align=center;" vertex="1" parent="1">
          <mxGeometry x="-1123" y="130.5" width="40" height="40" as="geometry" />
        </mxCell>
        <mxCell id="5YLZRb2mabN50mvJNGqJ-531" value="Class" style="text;html=1;align=center;verticalAlign=middle;resizable=0;points=[];autosize=1;labelPosition=center;verticalLabelPosition=middle;fontStyle=1" vertex="1" parent="1">
          <mxGeometry x="-1027" y="48.5" width="50" height="20" as="geometry" />
        </mxCell>
        <mxCell id="5YLZRb2mabN50mvJNGqJ-532" value="External class,&lt;br&gt;reused/imported&lt;br&gt;from other ontologies" style="text;html=1;align=center;verticalAlign=middle;resizable=0;points=[];autosize=1;labelPosition=center;verticalLabelPosition=middle;fontStyle=1" vertex="1" parent="1">
          <mxGeometry x="-1069" y="80.5" width="140" height="50" as="geometry" />
        </mxCell>
        <mxCell id="5YLZRb2mabN50mvJNGqJ-533" value="Multiple Classes&lt;br&gt;all together" style="text;html=1;align=center;verticalAlign=middle;resizable=0;points=[];autosize=1;labelPosition=center;verticalLabelPosition=middle;fontStyle=1" vertex="1" parent="1">
          <mxGeometry x="-1054" y="133.5" width="110" height="30" as="geometry" />
        </mxCell>
        <mxCell id="5YLZRb2mabN50mvJNGqJ-534" value="Datatype of the&lt;br&gt;Range of Data Property" style="text;html=1;align=center;verticalAlign=middle;resizable=0;points=[];autosize=1;labelPosition=center;verticalLabelPosition=middle;fontStyle=1" vertex="1" parent="1">
          <mxGeometry x="-1074" y="178.5" width="150" height="30" as="geometry" />
        </mxCell>
        <mxCell id="5YLZRb2mabN50mvJNGqJ-535" value="Object Property" style="text;html=1;align=center;verticalAlign=middle;resizable=0;points=[];autosize=1;labelPosition=center;verticalLabelPosition=middle;fontStyle=1" vertex="1" parent="1">
          <mxGeometry x="-1056" y="220.5" width="110" height="20" as="geometry" />
        </mxCell>
        <mxCell id="5YLZRb2mabN50mvJNGqJ-536" value="Data Property" style="text;html=1;align=center;verticalAlign=middle;resizable=0;points=[];autosize=1;labelPosition=center;verticalLabelPosition=middle;fontStyle=1" vertex="1" parent="1">
          <mxGeometry x="-1047" y="253.5" width="90" height="20" as="geometry" />
        </mxCell>
        <UserObject label="&lt;span style=&quot;font-size: 15px ; text-align: center ; background-color: rgb(255 , 102 , 102)&quot;&gt;&lt;font color=&quot;#ff6666&quot;&gt;sbeo:ha&lt;/font&gt;&lt;/span&gt;" id="5YLZRb2mabN50mvJNGqJ-537">
          <mxCell style="text;html=1;" vertex="1" parent="1">
            <mxGeometry x="-1132" y="281.5" width="56" height="30" as="geometry" />
          </mxCell>
        </UserObject>
        <mxCell id="5YLZRb2mabN50mvJNGqJ-538" value="External property,&lt;br&gt;reused/imported&lt;br&gt;from other ontologies" style="text;html=1;align=center;verticalAlign=middle;resizable=0;points=[];autosize=1;fontStyle=1" vertex="1" parent="1">
          <mxGeometry x="-1069" y="276.5" width="140" height="50" as="geometry" />
        </mxCell>
        <mxCell id="5YLZRb2mabN50mvJNGqJ-539" value="" style="group" vertex="1" connectable="0" parent="1">
          <mxGeometry x="-1127" y="337" width="170" height="20" as="geometry" />
        </mxCell>
        <mxCell id="5YLZRb2mabN50mvJNGqJ-540" value="" style="endArrow=classic;html=1;targetPerimeterSpacing=0;endSize=12;startSize=15;jumpSize=6;strokeColor=#000000;rounded=0;fontStyle=1" edge="1" parent="5YLZRb2mabN50mvJNGqJ-539">
          <mxGeometry width="50" height="50" relative="1" as="geometry">
            <mxPoint x="60" y="11" as="sourcePoint" />
            <mxPoint x="120" y="11" as="targetPoint" />
          </mxGeometry>
        </mxCell>
        <mxCell id="5YLZRb2mabN50mvJNGqJ-541" value="Range" style="text;html=1;align=center;verticalAlign=middle;resizable=0;points=[];autosize=1;fontStyle=1" vertex="1" parent="5YLZRb2mabN50mvJNGqJ-539">
          <mxGeometry x="120" width="50" height="20" as="geometry" />
        </mxCell>
        <mxCell id="5YLZRb2mabN50mvJNGqJ-542" value="Domain" style="text;html=1;align=center;verticalAlign=middle;resizable=0;points=[];autosize=1;fontStyle=1" vertex="1" parent="5YLZRb2mabN50mvJNGqJ-539">
          <mxGeometry width="60" height="20" as="geometry" />
        </mxCell>
      </root>
    </mxGraphModel>
  </diagram>
</mxfile>
